<svg width="314" height="300" viewBox="0 0 314 300" fill="none" xmlns="http://www.w3.org/2000/svg">
<path d="M135.298 295.869C201.271 295.869 254.754 292.537 254.754 288.427C254.754 284.317 201.271 280.985 135.298 280.985C69.324 280.985 15.8418 284.317 15.8418 288.427C15.8418 292.537 69.324 295.869 135.298 295.869Z" fill="#FF770F" fill-opacity="0.89"/>
<path opacity="0.8" d="M135.298 295.869C201.271 295.869 254.754 292.537 254.754 288.427C254.754 284.317 201.271 280.985 135.298 280.985C69.324 280.985 15.8418 284.317 15.8418 288.427C15.8418 292.537 69.324 295.869 135.298 295.869Z" fill="white"/>
<path d="M281.6 45.736C262.373 1.89633 216.223 -14.6102 179.81 14.8249C165.591 26.3084 156.719 44.5846 139.308 51.9182C122.972 58.7959 102.277 56.7713 84.6113 60.4961C46.9925 68.3784 -3.65537 98.2849 0.20852 144.366C1.9009 164.551 15.5172 186.969 22.2481 205.856C29.9759 227.586 34.6126 254.772 55.068 267.763C90.1366 290.065 132.438 271.835 164.03 253.853C181.031 244.185 190.389 238.243 208.696 241.558C225.643 244.649 240.906 255.468 257.466 242.632C269.9 232.995 270.928 213.467 281.368 201.999C293.13 189.079 305.054 188.143 311.167 168.724C318.577 145.162 307.658 130.44 300.278 109.39C292.898 88.3392 290.657 66.3614 281.6 45.736Z" fill="#FF770F" fill-opacity="0.89"/>
<g opacity="0.7">
<path opacity="0.7" d="M281.6 45.736C262.373 1.89633 216.223 -14.6102 179.81 14.8249C165.591 26.3084 156.719 44.5846 139.308 51.9182C122.972 58.7959 102.277 56.7713 84.6113 60.4961C46.9925 68.3784 -3.65537 98.2849 0.20852 144.366C1.9009 164.551 15.5172 186.969 22.2481 205.856C29.9759 227.586 34.6126 254.772 55.068 267.763C90.1366 290.065 132.438 271.835 164.03 253.853C181.031 244.185 190.389 238.243 208.696 241.558C225.643 244.649 240.906 255.468 257.466 242.632C269.9 232.995 270.928 213.467 281.368 201.999C293.13 189.079 305.054 188.143 311.167 168.724C318.577 145.162 307.658 130.44 300.278 109.39C292.898 88.3392 290.657 66.3614 281.6 45.736Z" fill="white"/>
</g>
<path d="M225.063 13.944H104.951C96.658 13.944 89.9355 20.6664 89.9355 28.959V282.538C89.9355 290.831 96.658 297.553 104.951 297.553H225.063C233.356 297.553 240.078 290.831 240.078 282.538V28.959C240.078 20.6664 233.356 13.944 225.063 13.944Z" fill="#263238"/>
<path d="M233.402 45.0869H96.605V266.41H233.402V45.0869Z" fill="white" stroke="#263238" stroke-width="1.33739" stroke-miterlimit="10"/>
<path d="M185.974 134.707C197.554 123.128 197.554 104.353 185.974 92.7737C174.394 81.1941 155.62 81.1941 144.04 92.7737C132.461 104.353 132.461 123.128 144.04 134.707C155.62 146.287 174.394 146.287 185.974 134.707Z" fill="#FF770F" fill-opacity="0.89"/>
<path d="M203.936 252.493H126.086C125.911 252.494 125.737 252.46 125.575 252.394C125.413 252.327 125.265 252.23 125.141 252.106C125.017 251.983 124.918 251.836 124.851 251.674C124.784 251.512 124.749 251.339 124.749 251.163C124.748 250.988 124.782 250.813 124.849 250.651C124.916 250.488 125.014 250.34 125.138 250.216C125.263 250.092 125.41 249.993 125.573 249.926C125.736 249.859 125.91 249.826 126.086 249.827H203.936C204.111 249.827 204.284 249.861 204.446 249.928C204.608 249.996 204.755 250.094 204.878 250.219C205.002 250.343 205.099 250.49 205.166 250.652C205.232 250.815 205.266 250.988 205.265 251.163C205.265 251.516 205.125 251.854 204.875 252.103C204.626 252.353 204.288 252.493 203.936 252.493Z" fill="#FF770F" fill-opacity="0.89"/>
<path d="M206.47 160.061H123.544C121.832 160.061 120.445 161.448 120.445 163.16V172.935C120.445 174.647 121.832 176.034 123.544 176.034H206.47C208.182 176.034 209.569 174.647 209.569 172.935V163.16C209.569 161.448 208.182 160.061 206.47 160.061Z" fill="#FF770F" fill-opacity="0.89"/>
<path d="M206.47 189.936H123.544C121.832 189.936 120.445 191.324 120.445 193.035V202.811C120.445 204.522 121.832 205.91 123.544 205.91H206.47C208.182 205.91 209.569 204.522 209.569 202.811V193.035C209.569 191.324 208.182 189.936 206.47 189.936Z" fill="#FF770F" fill-opacity="0.89"/>
<path d="M179.771 128.531L171.047 123.508V119.359C172.31 117.83 173.225 116.045 173.728 114.127C174.028 114.233 174.345 114.288 174.663 114.289C175.745 114.289 176.433 110.935 176.549 108.54C177.808 105.874 176.093 104.313 176.093 104.313C176.093 104.313 176.804 103.602 177.275 100.75C177.747 97.8985 175.614 99.0886 173.952 96.4766C172.291 93.8646 171.101 91.0208 165.645 91.0208C164.142 90.9713 162.658 91.3753 161.388 92.1802C160.117 92.985 159.118 94.1535 158.52 95.5338C157.162 95.5387 155.809 95.6968 154.486 96.0052C152.817 96.4766 152.345 101.94 153.767 104.081C154.404 105.251 154.744 106.559 154.757 107.891C154.378 107.427 153.984 107.303 153.767 108.354C153.296 110.727 155.197 114.05 155.197 114.05L156.178 113.771C156.673 115.821 157.627 117.732 158.968 119.359V123.508L150.244 128.531C149.225 129.12 148.378 129.966 147.79 130.984C147.201 132.003 146.891 133.158 146.89 134.335V137.21C152.079 141.218 158.45 143.393 165.007 143.393C171.564 143.393 177.936 141.218 183.125 137.21V134.335C183.126 133.158 182.816 132.002 182.227 130.983C181.638 129.964 180.791 129.118 179.771 128.531Z" fill="#263238"/>
<path d="M131.735 201.938C131.535 201.935 131.344 201.854 131.202 201.713C131.126 201.645 131.065 201.562 131.024 201.469C130.983 201.376 130.962 201.275 130.962 201.173C130.965 201.033 131.005 200.897 131.078 200.778L132.469 198.553L129.757 198.638C129.655 198.644 129.552 198.629 129.456 198.593C129.361 198.557 129.273 198.501 129.201 198.429C129.075 198.288 129.005 198.105 129.005 197.915C129.005 197.726 129.075 197.543 129.201 197.401C129.272 197.327 129.358 197.269 129.455 197.231C129.551 197.194 129.654 197.178 129.757 197.185L132.431 197.285L131.055 195.068C130.98 194.947 130.94 194.808 130.939 194.666C130.939 194.564 130.96 194.463 131.001 194.369C131.042 194.276 131.103 194.193 131.179 194.125C131.321 193.984 131.512 193.904 131.712 193.901C131.844 193.902 131.972 193.94 132.083 194.011C132.194 194.082 132.282 194.183 132.338 194.303L133.659 196.69L134.965 194.318C135.027 194.191 135.123 194.084 135.241 194.008C135.36 193.932 135.497 193.889 135.638 193.885C135.735 193.886 135.832 193.907 135.921 193.947C136.01 193.987 136.09 194.045 136.156 194.117C136.297 194.264 136.375 194.461 136.372 194.666C136.371 194.799 136.337 194.929 136.271 195.044L134.873 197.285L137.585 197.185C137.688 197.178 137.791 197.194 137.887 197.231C137.984 197.269 138.07 197.327 138.142 197.401C138.273 197.538 138.346 197.722 138.342 197.911C138.342 198.103 138.27 198.287 138.142 198.429C138.069 198.501 137.982 198.557 137.886 198.593C137.79 198.629 137.687 198.644 137.585 198.638L134.857 198.553L136.217 200.755C136.294 200.878 136.334 201.02 136.333 201.165C136.333 201.37 136.252 201.566 136.107 201.711C135.962 201.856 135.765 201.938 135.56 201.938C135.428 201.936 135.299 201.895 135.189 201.821C135.079 201.747 134.993 201.643 134.942 201.52L133.652 199.202L132.369 201.52C132.312 201.642 132.223 201.745 132.111 201.818C131.999 201.892 131.869 201.933 131.735 201.938Z" fill="#263238"/>
<path d="M144.27 201.938C144.07 201.935 143.879 201.854 143.737 201.714C143.661 201.645 143.6 201.562 143.559 201.469C143.517 201.376 143.497 201.275 143.497 201.173C143.5 201.033 143.54 200.897 143.613 200.778L145.004 198.553L142.299 198.638C142.196 198.643 142.093 198.627 141.996 198.591C141.899 198.555 141.811 198.5 141.735 198.429C141.633 198.323 141.564 198.189 141.539 198.044C141.514 197.899 141.533 197.749 141.594 197.615C141.655 197.481 141.755 197.368 141.88 197.291C142.006 197.215 142.152 197.178 142.299 197.185L144.966 197.285L143.59 195.068C143.515 194.947 143.475 194.808 143.474 194.666C143.473 194.564 143.494 194.463 143.536 194.369C143.577 194.276 143.638 194.193 143.714 194.125C143.856 193.984 144.047 193.904 144.247 193.901C144.379 193.902 144.507 193.94 144.618 194.011C144.729 194.082 144.817 194.183 144.873 194.303L146.194 196.69L147.5 194.318C147.562 194.191 147.658 194.084 147.776 194.008C147.895 193.932 148.032 193.889 148.173 193.885C148.27 193.885 148.367 193.905 148.456 193.945C148.546 193.985 148.625 194.044 148.69 194.117C148.762 194.189 148.819 194.275 148.857 194.369C148.896 194.463 148.915 194.564 148.914 194.666C148.912 194.799 148.874 194.93 148.806 195.044L147.408 197.285L150.128 197.2C150.229 197.194 150.332 197.209 150.426 197.247C150.521 197.284 150.607 197.342 150.676 197.417C150.808 197.554 150.88 197.737 150.877 197.927C150.877 198.118 150.805 198.303 150.676 198.445C150.605 198.516 150.519 198.572 150.425 198.608C150.33 198.644 150.229 198.66 150.128 198.653L147.392 198.568L148.752 200.771C148.828 200.894 148.869 201.036 148.868 201.18C148.868 201.385 148.787 201.582 148.642 201.727C148.497 201.872 148.3 201.953 148.095 201.953C147.963 201.951 147.834 201.911 147.724 201.837C147.614 201.763 147.528 201.658 147.477 201.536L146.187 199.217L144.904 201.536C144.845 201.654 144.754 201.754 144.643 201.825C144.531 201.896 144.402 201.935 144.27 201.938Z" fill="#263238"/>
<path d="M156.812 201.938C156.609 201.937 156.415 201.856 156.271 201.714C156.195 201.645 156.134 201.562 156.093 201.469C156.052 201.376 156.031 201.275 156.032 201.173C156.034 201.033 156.074 200.897 156.147 200.778L157.538 198.553L154.834 198.638C154.688 198.644 154.544 198.606 154.42 198.53C154.296 198.453 154.197 198.342 154.137 198.209C154.076 198.076 154.056 197.929 154.08 197.785C154.104 197.641 154.17 197.508 154.27 197.401C154.343 197.327 154.431 197.269 154.528 197.232C154.625 197.194 154.73 197.179 154.834 197.185L157.5 197.285L156.124 195.068C156.049 194.947 156.009 194.808 156.008 194.666C156.011 194.564 156.033 194.464 156.074 194.371C156.115 194.279 156.174 194.195 156.248 194.125C156.392 193.982 156.586 193.902 156.789 193.901C156.919 193.903 157.046 193.942 157.156 194.013C157.265 194.084 157.352 194.184 157.407 194.303L158.729 196.69L160.035 194.318C160.096 194.191 160.192 194.084 160.31 194.008C160.429 193.932 160.566 193.889 160.707 193.885C160.805 193.885 160.901 193.905 160.991 193.945C161.08 193.985 161.16 194.044 161.225 194.117C161.296 194.189 161.353 194.275 161.391 194.369C161.43 194.463 161.449 194.564 161.449 194.666C161.446 194.799 161.409 194.93 161.341 195.044L159.942 197.285L162.662 197.185C162.762 197.175 162.863 197.187 162.958 197.219C163.053 197.251 163.14 197.304 163.214 197.372C163.287 197.441 163.345 197.525 163.383 197.618C163.421 197.711 163.439 197.811 163.435 197.911C163.436 198.102 163.368 198.286 163.242 198.429C163.169 198.501 163.082 198.557 162.986 198.593C162.89 198.629 162.787 198.644 162.685 198.638L159.957 198.553L161.31 200.755C161.386 200.878 161.426 201.02 161.426 201.165C161.423 201.266 161.401 201.366 161.36 201.459C161.318 201.552 161.259 201.636 161.186 201.706C161.119 201.778 161.037 201.836 160.947 201.876C160.857 201.916 160.759 201.937 160.66 201.938C160.529 201.935 160.401 201.895 160.293 201.82C160.184 201.746 160.1 201.642 160.05 201.52L158.752 199.202L157.469 201.52C157.411 201.646 157.318 201.752 157.202 201.826C157.085 201.9 156.95 201.938 156.812 201.938Z" fill="#263238"/>
<path d="M169.346 201.938C169.144 201.937 168.949 201.856 168.806 201.714C168.66 201.571 168.577 201.376 168.574 201.173C168.571 201.034 168.609 200.897 168.682 200.778L170.073 198.553L167.368 198.638C167.265 198.643 167.162 198.627 167.065 198.591C166.968 198.555 166.879 198.5 166.804 198.429C166.678 198.288 166.608 198.105 166.608 197.915C166.608 197.726 166.678 197.543 166.804 197.401C166.879 197.329 166.967 197.273 167.064 197.236C167.161 197.199 167.264 197.181 167.368 197.185L170.042 197.285L168.674 195.068C168.599 194.947 168.559 194.808 168.558 194.666C168.561 194.564 168.583 194.464 168.624 194.371C168.665 194.279 168.724 194.195 168.798 194.125C168.942 193.982 169.136 193.902 169.339 193.901C169.47 193.902 169.599 193.94 169.71 194.011C169.821 194.082 169.909 194.183 169.965 194.303L171.278 196.69L172.584 194.318C172.646 194.191 172.742 194.084 172.86 194.008C172.979 193.932 173.116 193.889 173.257 193.885C173.355 193.885 173.451 193.905 173.541 193.945C173.63 193.985 173.71 194.044 173.774 194.117C173.846 194.189 173.903 194.275 173.941 194.369C173.98 194.463 173.999 194.564 173.999 194.666C173.996 194.799 173.959 194.93 173.89 195.044L172.492 197.285L175.212 197.185C175.312 197.175 175.413 197.187 175.508 197.219C175.603 197.251 175.69 197.304 175.764 197.372C175.837 197.441 175.894 197.525 175.933 197.618C175.971 197.711 175.988 197.811 175.985 197.911C175.986 198.102 175.917 198.286 175.791 198.429C175.719 198.501 175.631 198.557 175.536 198.593C175.44 198.629 175.337 198.644 175.235 198.638L172.507 198.553L173.859 200.755C173.936 200.878 173.976 201.02 173.975 201.165C173.976 201.267 173.955 201.368 173.914 201.461C173.873 201.554 173.812 201.638 173.736 201.706C173.669 201.778 173.587 201.836 173.497 201.876C173.407 201.916 173.309 201.937 173.21 201.938C173.079 201.935 172.951 201.895 172.843 201.82C172.734 201.746 172.65 201.642 172.6 201.52L171.302 199.202L170.019 201.52C169.96 201.648 169.865 201.756 169.745 201.83C169.626 201.904 169.487 201.941 169.346 201.938Z" fill="#263238"/>
<path d="M181.881 201.938C181.678 201.937 181.484 201.856 181.34 201.714C181.22 201.592 181.144 201.435 181.123 201.266C181.102 201.097 181.138 200.925 181.224 200.778L182.608 198.553L179.903 198.638C179.8 198.643 179.697 198.627 179.6 198.591C179.503 198.555 179.414 198.5 179.339 198.429C179.213 198.288 179.143 198.105 179.143 197.915C179.143 197.726 179.213 197.543 179.339 197.401C179.413 197.329 179.502 197.273 179.599 197.236C179.696 197.199 179.799 197.181 179.903 197.185L182.577 197.285L181.201 195.068C181.126 194.947 181.086 194.808 181.085 194.666C181.088 194.462 181.171 194.268 181.317 194.125C181.461 193.982 181.655 193.902 181.858 193.901C181.99 193.902 182.118 193.94 182.229 194.011C182.34 194.082 182.428 194.183 182.484 194.303L183.798 196.69L185.104 194.318C185.166 194.191 185.261 194.084 185.379 194.008C185.498 193.932 185.635 193.889 185.776 193.885C185.875 193.885 185.973 193.905 186.063 193.945C186.154 193.985 186.235 194.044 186.301 194.117C186.443 194.264 186.521 194.461 186.518 194.666C186.515 194.799 186.478 194.93 186.41 195.044L185.011 197.285L187.731 197.185C187.831 197.175 187.932 197.187 188.027 197.219C188.122 197.251 188.21 197.304 188.283 197.372C188.356 197.441 188.414 197.525 188.452 197.618C188.49 197.711 188.508 197.811 188.504 197.911C188.505 198.102 188.437 198.286 188.311 198.429C188.238 198.501 188.151 198.557 188.055 198.593C187.959 198.629 187.856 198.644 187.754 198.638L185.026 198.553L186.379 200.755C186.455 200.878 186.495 201.02 186.495 201.165C186.495 201.267 186.474 201.368 186.433 201.461C186.392 201.554 186.331 201.638 186.255 201.706C186.188 201.778 186.107 201.836 186.016 201.876C185.926 201.916 185.828 201.937 185.73 201.938C185.598 201.935 185.47 201.895 185.362 201.82C185.253 201.746 185.169 201.642 185.119 201.52L183.821 199.202L182.538 201.52C182.48 201.646 182.387 201.752 182.271 201.826C182.154 201.9 182.019 201.938 181.881 201.938Z" fill="#263238"/>
<path d="M194.416 201.938C194.216 201.935 194.025 201.854 193.882 201.714C193.806 201.646 193.746 201.562 193.704 201.469C193.663 201.376 193.642 201.275 193.643 201.173C193.645 201.033 193.685 200.897 193.759 200.778L195.142 198.553L192.437 198.638C192.338 198.645 192.238 198.632 192.144 198.599C192.05 198.566 191.964 198.513 191.891 198.445C191.818 198.377 191.761 198.294 191.722 198.202C191.683 198.11 191.663 198.011 191.665 197.911C191.664 197.817 191.682 197.723 191.718 197.636C191.754 197.548 191.807 197.469 191.873 197.401C191.944 197.327 192.031 197.269 192.127 197.231C192.224 197.194 192.327 197.178 192.43 197.185L195.103 197.285L193.728 195.068C193.653 194.947 193.613 194.808 193.612 194.666C193.615 194.462 193.698 194.268 193.844 194.125C193.988 193.982 194.182 193.902 194.385 193.901C194.516 193.902 194.645 193.94 194.756 194.011C194.867 194.082 194.955 194.183 195.011 194.303L196.324 196.69L197.638 194.318C197.7 194.193 197.794 194.086 197.911 194.01C198.028 193.934 198.163 193.891 198.303 193.885C198.402 193.885 198.5 193.905 198.59 193.945C198.681 193.985 198.762 194.044 198.828 194.117C198.97 194.264 199.048 194.461 199.045 194.666C199.044 194.799 199.01 194.929 198.944 195.044L197.545 197.285L200.258 197.185C200.361 197.178 200.464 197.194 200.56 197.231C200.656 197.269 200.743 197.327 200.814 197.401C200.946 197.538 201.018 197.722 201.015 197.911C201.015 198.103 200.943 198.287 200.814 198.429C200.742 198.501 200.654 198.557 200.558 198.593C200.463 198.629 200.36 198.644 200.258 198.638L197.53 198.553L198.882 200.755C198.959 200.878 198.999 201.02 198.998 201.165C198.995 201.369 198.912 201.563 198.766 201.706C198.626 201.85 198.434 201.933 198.233 201.938C198.102 201.935 197.974 201.895 197.865 201.82C197.757 201.746 197.673 201.642 197.623 201.52L196.324 199.202L195.042 201.52C194.986 201.641 194.898 201.744 194.788 201.817C194.677 201.891 194.548 201.933 194.416 201.938Z" fill="#263238"/>
<g style="mix-blend-mode:multiply">
<path d="M233.402 45.3806H96.605V53.9507H233.402V45.3806Z" fill="#FF770F" fill-opacity="0.89"/>
</g>
<path d="M179.879 29.5927H150.127C149.59 29.5927 149.075 29.3794 148.696 28.9997C148.316 28.62 148.103 28.105 148.103 27.568C148.103 27.031 148.316 26.516 148.696 26.1363C149.075 25.7566 149.59 25.5433 150.127 25.5433H179.879C180.416 25.5433 180.931 25.7566 181.311 26.1363C181.691 26.516 181.904 27.031 181.904 27.568C181.904 28.105 181.691 28.62 181.311 28.9997C180.931 29.3794 180.416 29.5927 179.879 29.5927Z" fill="#FF770F" fill-opacity="0.89" stroke="#263238" stroke-width="1.33739" stroke-linecap="round" stroke-linejoin="round"/>
<path d="M173.117 278.914C173.119 277.308 172.644 275.739 171.753 274.403C170.862 273.067 169.595 272.026 168.112 271.411C166.629 270.796 164.997 270.635 163.422 270.948C161.848 271.26 160.401 272.033 159.266 273.169C158.13 274.304 157.358 275.75 157.045 277.325C156.732 278.9 156.893 280.532 157.508 282.015C158.123 283.498 159.165 284.765 160.5 285.656C161.836 286.547 163.406 287.022 165.011 287.02C167.16 287.018 169.221 286.164 170.741 284.644C172.261 283.124 173.115 281.063 173.117 278.914Z" fill="#FF770F" fill-opacity="0.89"/>
<path d="M169.122 274.803H160.9V283.025H169.122V274.803Z" fill="#FF770F" fill-opacity="0.89" stroke="#263238" stroke-width="1.33739" stroke-linecap="round" stroke-linejoin="round"/>
<path d="M60.2383 131.383L34.7907 123.075L32.5265 117.094L27.3566 116.932L17.9751 115.154L19.1034 117.094L30.9114 125.664L33.8248 127.117L60.4392 141.019L60.2383 131.383Z" fill="white" stroke="#263238" stroke-width="1.00396" stroke-miterlimit="10"/>
<path d="M32.5262 117.094L30.0997 115.641L25.2544 117.419L26.0581 118.385L32.5262 117.094Z" fill="white" stroke="#263238" stroke-width="1.00396" stroke-linejoin="round"/>
<path d="M60.2383 131.383L34.7907 123.075L32.5265 117.094L27.3566 116.932L17.9751 115.154L19.1034 117.094L30.9114 125.664L33.8248 127.117L60.4392 141.019L60.2383 131.383Z" fill="white"/>
<path opacity="0.5" d="M60.2383 131.383L34.7907 123.075L32.5265 117.094L27.3566 116.932L17.9751 115.154L19.1034 117.094L30.9114 125.664L33.8248 127.117L60.4392 141.019L60.2383 131.383Z" fill="#FF770F" fill-opacity="0.89" stroke="#263238" stroke-width="1.00396" stroke-miterlimit="10"/>
<path d="M60.2383 131.383L34.7907 123.075L32.5265 117.094L27.3566 116.932L17.9751 115.154L19.1034 117.094L30.9114 125.664L33.8248 127.117L60.4392 141.019L60.2383 131.383Z" stroke="#263238" stroke-width="1.00396" stroke-miterlimit="10"/>
<path d="M32.5262 117.094L30.0997 115.641L25.2544 117.419L26.0581 118.385L32.5262 117.094Z" fill="white"/>
<path opacity="0.5" d="M32.5262 117.094L30.0997 115.641L25.2544 117.419L26.0581 118.385L32.5262 117.094Z" fill="#FF770F" fill-opacity="0.89" stroke="#263238" stroke-width="1.00396" stroke-linejoin="round"/>
<path d="M32.5262 117.094L30.0997 115.641L25.2544 117.419L26.0581 118.385L32.5262 117.094Z" stroke="#263238" stroke-width="1.00396" stroke-linejoin="round"/>
<path d="M65.6396 77.4662C65.6396 77.4662 65.2455 80.9437 66.2269 83.177C67.2083 85.4103 72.6564 92.9758 72.6564 92.9758L62.4867 101.129C62.4867 101.129 58.2673 92.6281 57.4636 91.2525C56.6599 89.877 55.6939 83.9575 58.3137 79.7149C60.9334 75.4724 64.7045 74.3287 65.6396 77.4662Z" fill="white"/>
<g style="mix-blend-mode:multiply" opacity="0.5">
<path d="M60.4159 88.6405L64.8284 97.7902L62.4792 101.136L58.0435 93.2153L60.4159 88.6405Z" fill="#FF770F" fill-opacity="0.89"/>
</g>
<path d="M65.6396 77.4662C65.6396 77.4662 65.2455 80.9437 66.2269 83.177C67.2083 85.4103 72.6564 92.9758 72.6564 92.9758L62.4867 101.129C62.4867 101.129 58.2673 92.6281 57.4636 91.2525C56.6599 89.877 55.6939 83.9575 58.3137 79.7149C60.9334 75.4724 64.7045 74.3287 65.6396 77.4662Z" stroke="#263238" stroke-width="1.00396" stroke-miterlimit="10"/>
<path d="M68.7925 71.0985C68.1666 67.2347 63.7386 59.3755 56.714 59.6769C52.1546 59.8778 50.0217 60.7974 48.0434 61.9179C46.4309 62.868 44.9278 63.9927 43.5613 65.2718C40.1302 69.3907 38.9247 70.5189 39.5892 73.6719C39.5347 74.9295 39.7318 76.1853 40.1688 77.3658C41.2198 80.1709 41.9385 82.0024 42.8504 83.3393C42.5722 84.6453 41.8458 88.0919 41.8071 88.8801C41.7685 89.6684 44.1255 89.1197 45.3155 88.8183C47.5257 93.7641 51.575 97.1952 52.8347 97.5894C55.0293 98.2771 58.4991 94.6683 60.3383 91.8708C62.1775 89.0733 60.7865 85.9281 60.7943 84.6762C60.802 83.4243 64.9286 80.6733 66.4587 79.8C67.9888 78.9268 69.4107 74.9547 68.7925 71.0985Z" fill="white"/>
<g style="mix-blend-mode:multiply" opacity="0.5">
<path d="M39.6208 73.6718C39.5662 74.9294 39.7633 76.1852 40.2003 77.3657C41.2513 80.1708 41.97 82.0023 42.8819 83.3392C42.6037 84.6452 41.8773 88.0918 41.8386 88.8801C41.8 89.6683 44.157 89.1196 45.347 88.8182C47.5572 93.764 51.6065 97.1951 52.8662 97.5893C55.0609 98.277 58.5306 94.6681 60.3698 91.8707C60.8293 91.1723 61.1276 90.3804 61.2431 89.5524C61.1426 89.1892 61.0731 88.9651 61.0731 88.9651C61.0731 88.9651 60.0375 92.9449 57.982 92.4271C55.9264 91.9093 52.7812 87.7904 51.027 86.3685C49.2728 84.9466 49.9914 83.0765 49.6437 80.9591C49.2959 78.8417 44.1029 76.9793 43.7551 75.766C43.4074 74.5528 44.6206 69.5297 44.6206 69.5297C44.6206 69.5297 46.5912 66.9023 46.1662 67.9841C45.8658 68.9222 45.7568 69.9111 45.8458 70.8921C45.9347 71.8731 46.2197 72.8262 46.6839 73.695C47.0097 74.3805 47.5265 74.9573 48.1721 75.3563C48.8178 75.7552 49.5649 75.9592 50.3237 75.9437L52.2093 66.6009L48.2295 63.3088L43.5928 65.2408C40.1308 69.3906 38.9484 70.5188 39.6208 73.6718Z" fill="#FF770F" fill-opacity="0.89"/>
</g>
<path d="M68.7925 71.0985C68.1666 67.2347 63.7386 59.3755 56.714 59.6769C52.1546 59.8778 50.0217 60.7974 48.0434 61.9179C46.4309 62.868 44.9278 63.9927 43.5613 65.2718C40.1302 69.3907 38.9247 70.5189 39.5892 73.6719C39.5347 74.9295 39.7318 76.1853 40.1688 77.3658C41.2198 80.1709 41.9385 82.0024 42.8504 83.3393C42.5722 84.6453 41.8458 88.0919 41.8071 88.8801C41.7685 89.6684 44.1255 89.1197 45.3155 88.8183C47.5257 93.7641 51.575 97.1952 52.8347 97.5894C55.0293 98.2771 58.4991 94.6682 60.3383 91.8708C62.1775 89.0733 60.7865 85.9281 60.7943 84.6762C60.802 83.4243 64.9286 80.6733 66.4587 79.8C67.9888 78.9268 69.4107 74.9547 68.7925 71.0985Z" stroke="#263238" stroke-miterlimit="10"/>
<path d="M43.8091 81.0055L44.5819 83.2156C44.5819 83.2156 46.2433 83.7643 48.268 81.5542" stroke="#263238" stroke-miterlimit="10" stroke-linecap="round"/>
<path d="M49.5195 91.3298C49.5195 91.3298 51.3587 91.1443 52.1006 88.5632" stroke="#263238" stroke-miterlimit="10" stroke-linecap="round"/>
<path d="M42.5186 79.1584C42.5186 79.1584 43.0672 77.4969 46.3824 77.4969" stroke="#263238" stroke-miterlimit="10" stroke-linecap="round"/>
<path d="M59.5116 56.6011C57.1027 56.2547 54.6734 56.0688 52.2398 56.0447C52.2398 56.0447 44.9602 51.8485 37.9666 56.3229C30.9729 60.7973 34.3345 68.6333 34.3345 70.5884C34.3345 72.5435 32.0934 72.5513 33.4922 75.0705C34.8909 77.5898 39.6203 76.1988 39.6203 76.1988C39.6703 75.2486 39.9214 74.3198 40.357 73.4739C40.7926 72.628 41.4028 71.8842 42.1473 71.2916C44.6665 69.3365 46.6758 68.9115 47.5104 69.4756C47.5104 69.4756 46.954 73.6718 47.7886 75.3487C47.7886 75.3487 50.586 76.7474 51.4283 76.7474C52.2707 76.7474 50.8797 77.9298 53.6694 78.9808C54.1776 79.1633 54.7213 79.2255 55.2576 79.1625C55.794 79.0995 56.3084 78.9129 56.7605 78.6176C57.1701 76.9174 58.0665 74.3595 59.7357 74.9546C62.1854 75.8278 64.4187 81.8555 61.1035 83.9111C65.091 84.6375 69.9209 77.582 70.2068 71.1525C70.4928 64.723 63.6537 57.3275 59.5116 56.6011Z" fill="#263238"/>
<path d="M47.6338 66.7168C47.6338 66.7168 49.6894 65.6117 52.2086 67.9764C54.7279 70.3411 59.6273 73.5018 66.1186 71.763" stroke="white" stroke-width="0.5" stroke-linecap="round" stroke-linejoin="round"/>
<path d="M47.3481 64.8234C47.3481 64.8234 48.7623 62.6133 51.127 62.6133C53.4917 62.6133 59.0171 65.9285 63.4296 65.9285" stroke="white" stroke-width="0.5" stroke-linecap="round" stroke-linejoin="round"/>
<path d="M45.7407 69.0815C45.7407 69.0815 43.0592 65.774 40.5399 68.4555C38.0207 71.1371 39.6203 73.6718 39.6203 73.6718" stroke="white" stroke-width="0.5" stroke-linecap="round" stroke-linejoin="round"/>
<path d="M35.0225 71.2917C36.5591 69.9059 37.5144 67.9898 37.6963 65.9286C38.0131 62.4588 42.7502 59.4604 45.7409 62.3043" stroke="white" stroke-width="0.5" stroke-linecap="round" stroke-linejoin="round"/>
<path d="M39.9062 58.6722C39.9062 58.6722 44.6434 54.0974 48.5845 59.9318" stroke="white" stroke-width="0.5" stroke-linecap="round" stroke-linejoin="round"/>
<path d="M78.4603 283.604C78.4603 283.604 81.3737 288.133 81.0491 291.046L80.7323 293.96C80.7323 293.96 70.0447 296.889 67.7805 296.889C65.5163 296.889 53.5305 295.753 53.5305 295.753L53.0127 293.697C52.9765 293.545 52.9936 293.385 53.0611 293.245C53.1287 293.104 53.2425 292.991 53.3837 292.924L64.0712 287.94L67.4405 284.254L78.4603 283.604Z" fill="white" stroke="#263238" stroke-width="1.00396" stroke-miterlimit="10"/>
<path d="M69.4035 294.609C72.3014 294.833 77.8035 293.063 80.9951 291.935L80.771 293.96C80.771 293.96 70.0449 296.889 67.7806 296.889C65.5164 296.889 53.5306 295.753 53.5306 295.753L53.1597 294.284C55.0762 294.292 65.5705 294.315 69.4035 294.609Z" fill="#FF770F" fill-opacity="0.89" stroke="#263238" stroke-width="1.00396" stroke-miterlimit="10"/>
<path d="M64.0862 287.94L48.5302 294.709C48.5302 294.709 47.201 298.04 48.5302 298.705C49.8594 299.369 78.8385 298.705 78.8385 298.705C78.8385 298.705 80.84 293.442 77.6794 289.91C74.5187 286.379 64.0862 287.94 64.0862 287.94Z" fill="white" stroke="#263238" stroke-width="1.00396" stroke-miterlimit="10"/>
<path d="M78.8388 298.705C78.8388 298.705 49.8596 299.369 48.5304 298.705C47.889 298.38 47.8658 297.445 48.0127 296.556H79.3488C79.2464 297.287 79.0756 298.006 78.8388 298.705Z" fill="#FF770F" fill-opacity="0.89" stroke="#263238" stroke-width="1.00396" stroke-miterlimit="10"/>
<path d="M56.7301 170.315C56.7301 170.315 52.6653 188.329 51.1275 199.596C49.5897 210.863 48.6855 233.436 49.0101 236.025C49.3346 238.613 65.5166 281.989 65.5166 281.989L67.1317 285.853L78.4606 283.589C78.4606 283.589 73.283 267.083 71.3434 258.018C69.4037 248.953 65.1611 234.062 65.1611 231.473C65.1611 228.884 75.2072 179.442 75.9259 176.196C76.6446 172.951 79.9057 167.966 79.9057 167.966L58.2139 167.526L56.7301 170.315Z" fill="#FF770F" fill-opacity="0.89" stroke="#263238" stroke-width="1.00396" stroke-miterlimit="10"/>
<path d="M56.7298 170.315C56.7298 170.315 54.3496 186.768 55.331 198.205C56.3125 209.642 58.4222 233.992 58.4222 237.617C58.4222 241.241 64.2721 262.886 64.6044 269.687C65.1221 279.509 64.3957 284.37 64.3957 284.37L64.048 287.932C64.048 287.932 70.8716 288.906 72.3631 289.331C74.0857 289.775 75.8634 289.967 77.6411 289.903C77.6411 289.903 80.1217 278.983 80.1217 269.679C80.1217 260.375 78.0584 241.225 77.0306 233.467C76.0028 225.708 79.2408 195.778 81.08 190.191C82.9192 184.604 86.9376 172.773 84.2329 166.73C81.5282 160.687 56.7298 170.315 56.7298 170.315Z" fill="#FF770F" fill-opacity="0.89" stroke="#263238" stroke-width="1.00396" stroke-miterlimit="10"/>
<path d="M87.2392 163.7L86.992 171.057C86.992 171.057 82.5871 171.93 76.6522 172.958C71.7528 173.808 59.4502 172.734 55.3081 172.332C54.9306 172.299 54.5816 172.118 54.337 171.828C54.0925 171.539 53.9721 171.164 54.0021 170.787L54.4039 164.141L87.2392 163.7Z" fill="#263238"/>
<path d="M70.0212 90.3638C70.0212 90.3638 63.0662 97.8829 60.4465 102.558C57.8268 107.234 56.7913 114.397 55.8099 120.038C54.8284 125.68 57.4868 138.925 56.7372 145.007L54.3648 164.164C54.3648 164.164 53.8547 165.462 55.5626 166.884C57.2704 168.306 65.6087 168.824 73.1433 169.203C75.8944 169.342 84.109 167.572 85.4536 167.487C87.0765 167.387 87.1306 165.323 87.2001 163.7C87.5247 156.073 88.9002 135.741 89.8044 126.885C91.6668 108.825 81.4738 91.3916 70.0212 90.3638Z" fill="white" stroke="#263238" stroke-width="1.00396" stroke-miterlimit="10"/>
<g style="mix-blend-mode:multiply">
<path d="M88.9547 137.155C89.2639 133.145 89.573 129.505 89.8434 126.885C89.9207 126.112 89.9671 125.34 90.0057 124.567L71.5286 127.658L55.6558 122.249C55.6575 125.533 55.8433 128.815 56.2122 132.078L71.7836 136.437L88.9547 137.155Z" fill="#FF770F" fill-opacity="0.89"/>
</g>
<g style="mix-blend-mode:multiply">
<path d="M69.334 91.1211C68.283 92.288 66.1965 94.6604 64.2104 97.1797L75.9412 109.104L79.8051 107.558L69.334 91.1211Z" fill="#FF770F" fill-opacity="0.89"/>
</g>
<path d="M70.0219 90.3638C70.0219 90.3638 63.0669 97.8829 60.4472 102.558C59.6704 103.979 59.0412 105.476 58.5693 107.025L72.5566 90.8661C71.7303 90.6157 70.8813 90.4475 70.0219 90.3638Z" fill="#263238"/>
<g style="mix-blend-mode:multiply">
<path d="M56.3511 116.994L71.5284 121.986L89.9592 119.868C89.6703 115.277 88.6503 110.761 86.9376 106.492L72.0771 112.45L58.793 106.43C57.7068 109.883 56.8904 113.414 56.3511 116.994Z" fill="#FF770F" fill-opacity="0.89"/>
</g>
<g style="mix-blend-mode:multiply">
<path d="M82.479 156.073C74.7811 157.366 66.8825 156.72 59.4966 154.195L55.795 152.928L54.6436 162.201L58.8629 163.384C66.8841 165.626 75.2676 166.272 83.5377 165.285L86.9457 164.875C87.123 164.5 87.2229 164.092 87.2393 163.677C87.332 161.614 87.4943 158.615 87.703 155.177L82.479 156.073Z" fill="#FF770F" fill-opacity="0.89"/>
</g>
<g style="mix-blend-mode:multiply">
<path d="M84.5421 143.446C76.8439 144.743 68.9435 144.095 61.5597 141.56L56.8458 139.945C56.9627 141.629 56.9394 143.319 56.7762 144.999L56.2275 149.458L60.926 150.772C68.9441 153.017 77.3251 153.665 85.5931 152.681L87.9114 152.402C88.1046 149.311 88.3287 146.019 88.5683 142.766L84.5421 143.446Z" fill="#FF770F" fill-opacity="0.89"/>
</g>
<path d="M12.041 110.767L26.9829 122.78L27.6269 121.979L12.685 109.966L12.041 110.767Z" fill="#263238"/>
<path d="M77.216 98.702C77.216 98.702 82.695 102.435 82.8187 111.252C82.8727 115.116 82.4709 118.725 81.5822 125.054C80.6935 131.383 75.1759 151.993 70.8792 154.497C66.5826 157 59.9135 152.271 59.9135 152.271L27.6578 130.857L19.8605 124.559L15.9966 117.264L17.2098 114.946L26.7227 122.241L21.5992 117.504L22.6038 116.229L24.4585 117.519L29.8679 119.544L31.0503 127.272L32.7195 128.415L63.5765 139.69C63.5765 139.69 63.1901 123.083 63.476 119.907C63.762 116.731 64.1561 108.748 67.5563 102.96" fill="white"/>
<g style="mix-blend-mode:multiply" opacity="0.5">
<path d="M63.3603 127.14C63.3603 132.874 63.5535 139.69 63.5535 139.69L32.7274 128.462L31.0582 127.318L29.8759 119.59L24.4664 117.566L22.6195 116.252L21.6149 117.527L26.7229 122.241L17.21 114.946L16.0586 117.225L19.9225 124.521L27.7198 130.857L29.6827 132.163L72.3013 145.896L63.3603 127.14Z" fill="#FF770F" fill-opacity="0.89"/>
</g>
<path d="M77.216 98.702C77.216 98.702 82.695 102.435 82.8187 111.252C82.8728 115.116 82.4709 118.725 81.5822 125.054C80.6935 131.383 75.1759 151.993 70.8792 154.497C66.5826 157 59.9135 152.271 59.9135 152.271L27.6578 130.857L19.8605 124.559L15.9966 117.264L17.2098 114.946L26.7227 122.241L21.5992 117.504L22.6038 116.229L24.4585 117.519L29.8679 119.544L31.0503 127.272L32.7195 128.415L63.5765 139.69C63.5765 139.69 63.1901 123.083 63.476 119.907C63.762 116.731 64.1561 108.748 67.5563 102.96" stroke="#263238" stroke-width="1.00396" stroke-miterlimit="10"/>
<path d="M63.5762 139.69L75.3534 148.191L78.4058 142.781C78.4058 142.781 80.5155 141.12 80.8246 139.868C81.1337 138.616 80.7396 136.584 81.0565 135.332C81.3733 134.08 82.9498 132.905 83.0966 129.876C83.2434 126.847 83.0966 124.32 83.0966 124.32C83.0966 124.32 85.6468 113.833 85.3686 109.274C85.0904 104.714 80.6933 96.6541 77.1694 96.4764C73.6455 96.2986 69.063 96.8318 65.5082 102.21C61.9534 107.589 62.6798 123.292 62.1234 124.273C61.567 125.255 62.3398 130.1 62.3398 130.1C62.0309 130.33 61.7747 130.624 61.5882 130.961C61.4016 131.298 61.289 131.671 61.2579 132.055C61.1961 133.315 62.5562 136.414 62.5562 136.414L63.5762 139.69Z" fill="white" stroke="#263238" stroke-width="1.00396" stroke-miterlimit="10"/>
<g style="mix-blend-mode:multiply">
<path d="M62.4328 120.239C62.4571 121.588 62.3562 122.936 62.1314 124.266C61.6369 125.147 62.201 129.126 62.3246 129.938C68.9487 131.995 75.9532 132.524 82.811 131.483C82.9583 130.946 83.0464 130.394 83.0737 129.837C83.2283 126.816 83.0737 124.281 83.0737 124.281C83.0737 124.281 83.2978 123.346 83.6069 121.924C76.5047 122.375 69.3743 121.808 62.4328 120.239Z" fill="#FF770F" fill-opacity="0.89"/>
</g>
<g style="mix-blend-mode:multiply">
<path d="M65.0295 103.068C63.9244 105.286 63.3062 108.617 62.9507 111.994C69.966 114.671 77.5298 115.592 84.9826 114.675C85.2799 112.888 85.4119 111.077 85.3767 109.266C85.2429 107.834 84.9046 106.429 84.3721 105.093C77.8646 105.245 71.3644 104.564 65.0295 103.068Z" fill="#FF770F" fill-opacity="0.89"/>
</g>
<path d="M62.5562 136.499L63.553 139.69L75.3302 148.191L78.3826 142.781C78.3826 142.781 80.4923 141.12 80.8014 139.868C80.8566 139.65 80.8902 139.428 80.9019 139.203C74.6956 139.096 68.5293 138.187 62.5562 136.499Z" fill="#263238"/>
<path d="M71.0802 289.23C71.0802 289.23 71.343 282.538 72.6258 272.755C73.9086 262.971 70.8252 249.077 70.3075 246.758C69.7897 244.44 70.5702 239.293 70.0524 237.485C69.5347 235.677 67.0309 227.964 68.5069 219.016C69.9829 210.067 71.1807 186.412 71.1807 186.412C71.1807 186.412 67.4636 183.391 66.374 179.457C65.2844 175.524 66.119 174.287 66.119 174.287" stroke="#263238" stroke-width="1.00396" stroke-miterlimit="10"/>
<path d="M72.8037 174.651L71.374 182.564" stroke="#263238" stroke-width="1.00396" stroke-miterlimit="10"/>
</svg>
