<svg width="313" height="299" viewBox="0 0 313 299" fill="none" xmlns="http://www.w3.org/2000/svg">
<path d="M281.027 44.9094C261.839 1.86206 215.783 -14.3461 179.444 14.557C165.254 25.8329 156.4 43.7787 139.025 50.9798C122.722 57.7333 102.069 55.7452 84.4391 59.4026C46.8969 67.1425 -3.64793 96.5085 0.208095 141.756C1.89703 161.576 15.4857 183.59 22.2029 202.135C29.9149 223.473 34.5421 250.168 54.956 262.923C89.9532 284.822 132.169 266.922 163.696 249.265C180.662 239.772 190.002 233.937 208.272 237.192C225.184 240.227 240.415 250.85 256.942 238.247C269.351 228.784 270.377 209.609 280.796 198.348C292.533 185.661 304.433 184.743 310.533 165.674C317.929 142.538 307.032 128.083 299.667 107.413C292.302 86.7426 290.066 65.162 281.027 44.9094Z" fill="#FF770F"/>
<g opacity="0.7">
<path opacity="0.7" d="M281.027 44.9094C261.839 1.86206 215.783 -14.3461 179.444 14.557C165.254 25.8329 156.4 43.7787 139.025 50.9798C122.722 57.7333 102.069 55.7452 84.4391 59.4026C46.8969 67.1425 -3.64793 96.5085 0.208095 141.756C1.89703 161.576 15.4857 183.59 22.2029 202.135C29.9149 223.473 34.5421 250.168 54.956 262.923C89.9532 284.822 132.169 266.922 163.696 249.265C180.662 239.772 190.002 233.937 208.272 237.192C225.184 240.227 240.415 250.85 256.942 238.247C269.351 228.784 270.377 209.609 280.796 198.348C292.533 185.661 304.433 184.743 310.533 165.674C317.929 142.538 307.032 128.083 299.667 107.413C292.302 86.7426 290.066 65.162 281.027 44.9094Z" fill="white"/>
</g>
<path d="M135.022 298.868C200.862 298.868 254.235 295.596 254.235 291.56C254.235 287.525 200.862 284.253 135.022 284.253C69.183 284.253 15.8096 287.525 15.8096 291.56C15.8096 295.596 69.183 298.868 135.022 298.868Z" fill="#FF770F"/>
<path opacity="0.8" d="M135.022 298.868C200.862 298.868 254.235 295.596 254.235 291.56C254.235 287.525 200.862 284.253 135.022 284.253C69.183 284.253 15.8096 287.525 15.8096 291.56C15.8096 295.596 69.183 298.868 135.022 298.868Z" fill="white"/>
<path d="M281.314 71.2712H151.094V262.851H281.314V71.2712Z" fill="#EBEBEB"/>
<path d="M264.406 50.0574C265.728 49.2235 267.15 48.5779 268.636 48.1378L269.508 43.7605L276.587 43.626L277.605 47.9727C279.107 48.3581 280.553 48.9524 281.905 49.7395L285.479 47.2941L290.575 52.4294L288.358 56.2504C289.156 57.6338 289.774 59.1223 290.195 60.6766L294.384 61.5875L294.507 68.9849L290.353 70.0486C289.982 71.6162 289.414 73.1252 288.662 74.5359L291.002 78.2774L286.082 83.5962L282.425 81.2792C281.104 82.115 279.681 82.7626 278.195 83.2049L277.324 87.5822L270.245 87.7106L269.227 83.37C267.727 82.9828 266.282 82.3887 264.932 81.6032L261.352 84.0486L256.262 78.9071L258.479 75.0862C257.676 73.7048 257.056 72.2158 256.636 70.66L252.448 69.7491L252.325 62.3517L256.479 61.2879C256.851 59.721 257.42 58.2123 258.169 56.8006L255.829 53.0653L260.749 47.7404L264.406 50.0574ZM268.179 59.9124C267.132 61.042 266.429 62.4711 266.159 64.0187C265.889 65.5663 266.065 67.1628 266.664 68.6059C267.263 70.049 268.258 71.274 269.524 72.1256C270.79 72.9771 272.269 73.4171 273.774 73.3896C275.279 73.3622 276.742 72.8687 277.979 71.9715C279.216 71.0743 280.169 69.8139 280.72 68.3498C281.271 66.8857 281.393 65.2838 281.072 63.747C280.75 62.2102 280 60.8076 278.915 59.7168C277.463 58.2601 275.518 57.464 273.506 57.503C271.494 57.5419 269.578 58.4127 268.179 59.9246V59.9124Z" fill="#E0E0E0"/>
<path d="M268.18 59.9246C268.578 59.4091 269.057 58.9669 269.595 58.6163C271.059 57.6207 272.809 57.1884 274.545 57.3936C275.745 57.5176 276.9 57.9366 277.915 58.6163C279.081 59.4129 280.023 60.521 280.641 61.8259C281.337 63.292 281.591 64.9436 281.372 66.5639C281.156 68.2898 280.413 69.8969 279.254 71.1469C278.095 72.3968 276.581 73.2229 274.937 73.5027C274.164 73.6461 273.374 73.6585 272.597 73.5394C271.853 73.4539 271.127 73.2476 270.444 72.928C269.175 72.3308 268.083 71.3867 267.284 70.1953C266.436 68.9334 265.954 67.4423 265.897 65.9012C265.84 64.3602 266.21 62.8347 266.963 61.508C267.271 60.9377 267.666 60.4235 268.133 59.9857C268.174 60.0224 267.676 60.5054 267.091 61.5936C266.275 63.141 265.979 64.9297 266.249 66.6739C266.431 67.8675 266.878 69.0001 267.554 69.9813C268.33 71.1014 269.375 71.9872 270.584 72.549C271.922 73.162 273.403 73.3512 274.843 73.0931C276.39 72.8164 277.812 72.0309 278.902 70.851C279.993 69.6712 280.694 68.1585 280.904 66.5333C281.096 65.0209 280.862 63.4829 280.232 62.1071C279.652 60.8685 278.768 59.8135 277.669 59.0503C276.708 58.3843 275.609 57.9653 274.463 57.8276C272.786 57.6059 271.087 57.9783 269.636 58.8853C268.659 59.4294 268.215 59.9674 268.18 59.9246Z" fill="#E0E0E0"/>
<path d="M264.406 50.0573C264.324 50.0222 264.246 49.9792 264.172 49.929L263.47 49.5071L260.685 47.8137H260.773L255.887 53.1691V53.0224L258.228 56.7516L258.345 56.7822L258.309 56.8556C257.567 58.2568 257.009 59.7558 256.648 61.3123V61.3979H256.566L252.412 62.4739L252.529 62.315C252.576 64.6462 252.623 67.112 252.67 69.7123L252.494 69.6206L256.683 70.5193H256.794L256.823 70.6293C257.241 72.1655 257.855 73.6358 258.649 75.0005L258.707 75.1044L258.649 75.2084L256.437 79.0293L256.408 78.7787L261.504 83.914H261.252L264.827 81.4686L264.932 81.3953L265.043 81.4625C266.378 82.2349 267.804 82.8206 269.285 83.2049H269.408L269.443 83.3332C269.759 84.6904 270.11 86.176 270.461 87.6738L270.25 87.5088L277.329 87.3743L277.119 87.5516L277.99 83.1743L278.02 83.0398L278.148 83.0031C279.613 82.568 281.016 81.9306 282.32 81.1079L282.437 81.0407L282.548 81.1079L286.204 83.4311H285.935L290.85 78.1123V78.3935L288.51 74.652L288.434 74.542L288.498 74.4197C289.242 73.0287 289.804 71.5402 290.171 69.9935L290.2 69.859H290.323L294.483 68.8014L294.325 69.0154C294.286 66.4885 294.247 64.0227 294.208 61.618L294.366 61.8198L290.177 60.9027H290.06L290.031 60.7805C289.614 59.2441 289.004 57.7723 288.217 56.4032L288.159 56.2993L288.182 56.1709L290.405 52.3499L290.434 52.5883L285.35 47.4346H285.561L281.975 49.8801L281.899 49.9351L281.817 49.8862C280.48 49.1035 279.05 48.5114 277.563 48.1255H277.476V48.0399C277.107 46.4565 276.779 45.0381 276.469 43.6932L276.598 43.7971L269.519 43.8888L269.613 43.8093C269.25 45.5578 268.957 46.9884 268.712 48.1805V48.2233H268.671C267.553 48.5493 266.468 48.9853 265.429 49.5255L264.669 49.9412C264.589 49.993 264.505 50.038 264.417 50.0757C264.493 50.0165 264.571 49.9614 264.651 49.9106C264.815 49.8067 265.061 49.6477 265.4 49.4582C266.429 48.8862 267.511 48.4253 268.63 48.0827L268.583 48.1377C268.811 46.915 269.086 45.5089 269.425 43.7543V43.6748H269.501L276.58 43.5098H276.68V43.6137C276.996 44.9587 277.335 46.377 277.71 47.9543L277.604 47.8443C279.12 48.2285 280.58 48.8227 281.945 49.6111H281.782L285.35 47.1657L285.461 47.0923L285.561 47.184L290.663 52.3132L290.768 52.4172L290.692 52.5455C289.972 53.7683 289.241 55.0643 288.48 56.3726V56.1709C289.289 57.5677 289.917 59.0704 290.347 60.6398L290.2 60.4931L294.389 61.404H294.547V61.5752C294.594 63.9758 294.639 66.4395 294.682 68.9665V69.1438L294.524 69.1804L290.37 70.2503L290.522 70.0914C290.147 71.6777 289.573 73.2052 288.814 74.6337V74.4014L291.154 78.1429L291.248 78.2896L291.125 78.418L286.21 83.7428L286.093 83.8712L285.941 83.7795L282.331 81.4808H282.554C281.216 82.3264 279.776 82.9803 278.271 83.4249L278.423 83.2538L277.552 87.631L277.517 87.8083H277.341L270.262 87.9306H270.092L270.051 87.7594C269.7 86.2555 269.355 84.776 269.039 83.4127L269.191 83.5778C267.674 83.181 266.213 82.5789 264.844 81.7865H265.061L261.48 84.2319L261.346 84.3236L261.229 84.2075C259.474 82.4162 257.719 80.6739 256.139 79.0599L256.028 78.9437L256.11 78.8092L258.333 74.9883V75.1961C257.53 73.7962 256.909 72.2914 256.484 70.721L256.589 70.8433L252.4 69.9263H252.266V69.7857C252.223 67.1895 252.186 64.7237 252.155 62.3883V62.2599L252.272 62.2294L256.431 61.1778L256.332 61.2818C256.715 59.7079 257.297 58.1946 258.064 56.7822V56.9167L255.724 53.1691L255.677 53.0897L255.741 53.0285L260.685 47.7036L260.726 47.6608L260.773 47.6914L263.464 49.446L264.16 49.9045C264.244 49.951 264.326 50.002 264.406 50.0573Z" fill="#E0E0E0"/>
<path d="M233.515 35.0975C234.31 34.6 235.164 34.2136 236.054 33.9481L236.575 31.3316L240.811 31.2521L241.396 33.8503C242.296 34.0802 243.162 34.436 243.97 34.908L246.111 33.4407L249.16 36.4975L247.831 38.7839C248.331 39.6129 248.719 40.5098 248.984 41.4494L251.494 41.9996L251.57 46.4258L249.078 47.0372C248.858 47.9773 248.517 48.8822 248.065 49.7271L249.47 51.9647L246.544 55.1498L244.304 53.7865C243.514 54.2891 242.664 54.6797 241.776 54.9481L241.256 57.5708L237.014 57.6441L236.429 55.0459C235.531 54.816 234.667 54.4602 233.861 53.9883L231.719 55.4555L228.671 52.3987L229.97 50.0573C229.495 49.2285 229.125 48.3386 228.87 47.4101L226.366 46.866L226.29 42.4337L228.776 41.8224C228.998 40.8847 229.339 39.9821 229.789 39.1385L228.385 36.901L231.31 33.7097L233.498 35.0975H233.515ZM235.779 40.997C235.156 41.6732 234.738 42.5273 234.579 43.4514C234.42 44.3756 234.526 45.3283 234.885 46.1893C235.243 47.0503 235.838 47.7808 236.594 48.2887C237.35 48.7966 238.233 49.059 239.131 49.0428C240.03 49.0266 240.903 48.7325 241.642 48.1976C242.381 47.6627 242.951 46.9111 243.281 46.0377C243.611 45.1643 243.686 44.2083 243.496 43.2905C243.306 42.3726 242.861 41.5341 242.215 40.8809C241.786 40.4455 241.279 40.103 240.723 39.8732C240.166 39.6433 239.572 39.5305 238.974 39.5413C238.376 39.5521 237.786 39.6862 237.238 39.936C236.69 40.1859 236.194 40.5464 235.779 40.997Z" fill="#F5F5F5"/>
<path d="M235.78 40.9971C236.018 40.6913 236.302 40.4289 236.622 40.2207C237.5 39.6253 238.548 39.3661 239.589 39.4871C240.363 39.5746 241.103 39.8655 241.74 40.3326C242.377 40.7998 242.891 41.428 243.233 42.1587C243.439 42.5767 243.58 43.0267 243.649 43.4914C243.725 43.9752 243.725 44.4688 243.649 44.9526C243.522 45.9835 243.08 46.9444 242.39 47.6931C241.7 48.4417 240.798 48.9385 239.817 49.1097C239.352 49.186 238.878 49.186 238.413 49.1097C237.777 49.0199 237.167 48.7937 236.619 48.4455C236.071 48.0973 235.598 47.6345 235.23 47.0862C234.815 46.4681 234.546 45.7556 234.446 45.0076C234.288 43.9269 234.495 42.8225 235.031 41.8836C235.22 41.5417 235.461 41.2341 235.745 40.9726C235.745 40.9726 235.47 41.2844 235.119 41.9386C234.814 42.5056 234.625 43.133 234.566 43.7806C234.507 44.4281 234.578 45.0815 234.775 45.6986C234.971 46.3158 235.289 46.8832 235.708 47.3643C236.127 47.8454 236.638 48.2296 237.207 48.4923C237.597 48.6768 238.011 48.7964 238.436 48.8469C238.875 48.916 239.322 48.9056 239.758 48.8163C240.685 48.6544 241.538 48.1856 242.191 47.479C242.844 46.7724 243.263 45.8654 243.386 44.8914C243.459 44.434 243.459 43.9671 243.386 43.5098C243.318 43.0708 243.19 42.6445 243.005 42.2443C242.656 41.5019 242.125 40.8692 241.467 40.4102C240.899 40.0107 240.25 39.7553 239.571 39.6644C238.558 39.5195 237.528 39.7348 236.646 40.2757C236.067 40.7037 235.797 41.0216 235.78 40.9971Z" fill="#F5F5F5"/>
<path d="M233.515 35.0976L233.375 35.0242L232.959 34.7675L231.31 33.7526H231.356L228.431 36.9561V36.8705L229.841 39.102V39.1448V39.1875C229.401 40.0294 229.066 40.9274 228.847 41.8592V41.9081H228.8L226.313 42.5561L226.384 42.4583C226.384 43.8522 226.436 45.3316 226.465 46.8845L226.384 46.7805L228.893 47.3246H228.958V47.3919C229.21 48.3108 229.578 49.1906 230.052 50.0085L230.087 50.0696L230.052 50.1307L228.73 52.4172V52.2705L231.783 55.3272H231.631L233.773 53.86L233.837 53.8172L233.901 53.8539C234.7 54.3164 235.554 54.6659 236.44 54.8932H236.517V54.9727C236.71 55.7858 236.92 56.6722 237.131 57.5709L237.002 57.4731L241.238 57.3936L241.115 57.4975C241.279 56.6722 241.46 55.7796 241.636 54.881V54.7954H241.712C242.588 54.5315 243.428 54.1492 244.21 53.6582L244.28 53.6155L244.35 53.6582L246.538 55.046H246.375C247.369 53.97 248.352 52.9124 249.3 51.8609V52.0321L247.896 49.7945L247.855 49.7211L247.89 49.6539C248.335 48.8201 248.672 47.9277 248.89 47.0006V46.9211H248.96L251.447 46.3098L251.353 46.4382C251.33 44.9302 251.306 43.4548 251.283 42.012L251.383 42.1343L248.873 41.584H248.803V41.5107C248.554 40.5903 248.19 39.7084 247.72 38.888L247.679 38.8268L247.72 38.7657L249.048 36.4854V36.6199C247.978 35.5378 246.965 34.5168 246.006 33.5631H246.129L243.982 35.0242L243.935 35.0609H243.888C243.103 34.5712 242.259 34.193 241.378 33.936H241.326V33.8871C241.109 32.9395 240.91 32.0897 240.741 31.2828L240.817 31.3439L236.581 31.3989L236.639 31.3561C236.423 32.4015 236.247 33.2574 236.101 33.9727C235.419 34.1732 234.757 34.4414 234.124 34.7736L233.667 35.0242C233.621 35.0589 233.57 35.0857 233.515 35.1037L233.661 35.0059C233.755 34.9448 233.901 34.8469 234.106 34.7369C234.723 34.3932 235.372 34.1166 236.043 33.9116L236.013 33.9483C236.148 33.233 236.312 32.371 236.517 31.3194V31.2766H236.563L240.799 31.1788H240.858V31.2461C241.051 32.047 241.25 32.8967 241.443 33.8443L241.384 33.7771C242.29 34.0063 243.161 34.3621 243.976 34.8347H243.882L246.059 33.3552L246.129 33.3063L246.187 33.3675L249.241 36.4242L249.3 36.4854L249.259 36.5648L247.931 38.8513V38.729C248.417 39.5648 248.793 40.4656 249.048 41.4068L248.96 41.3212L251.47 41.8653H251.564V41.9631C251.593 43.4059 251.617 44.8792 251.646 46.3954V46.4932L251.552 46.5238L249.06 47.1351L249.154 47.0373C248.933 47.9878 248.59 48.9029 248.136 49.7578V49.6233L249.569 51.8914L249.622 51.977L249.551 52.0565L246.626 55.2417L246.556 55.3211L246.468 55.2661L244.274 53.8783H244.409C243.608 54.3837 242.746 54.7744 241.846 55.0399L241.94 54.9421C241.759 55.8408 241.583 56.7333 241.413 57.5587V57.6687H241.308L237.072 57.7421H236.967V57.6382C236.756 56.7395 236.552 55.853 236.382 55.0338L236.476 55.1316C235.534 54.9136 234.625 54.564 233.773 54.0923H233.901L231.76 55.5596L231.678 55.6146L231.608 55.5596C230.555 54.4897 229.519 53.4504 228.566 52.5028L228.496 52.4355L228.548 52.3561L229.876 50.0696V50.1919C229.396 49.3545 229.024 48.454 228.771 47.5142L228.852 47.5936L226.343 47.0006H226.261V46.915C226.261 45.3622 226.22 43.8583 226.196 42.4888V42.4094H226.267L228.759 41.798L228.694 41.8653C228.92 40.9182 229.266 40.0072 229.724 39.157V39.2426L228.332 36.9989L228.302 36.95L228.338 36.9133C229.543 35.6234 230.537 34.5535 231.298 33.7465H231.327L232.942 34.798L233.351 35.0731L233.515 35.0976Z" fill="#F5F5F5"/>
<path d="M120.016 44.8549H43.4277V177.335H120.016V44.8549Z" fill="#E0E0E0"/>
<path d="M117.471 44.8549H40.8828V177.335H117.471V44.8549Z" fill="#EBEBEB"/>
<path d="M114.212 47.5386H44.1411V174.645H114.212V47.5386Z" fill="#FAFAFA"/>
<path d="M100.57 64.0573H57.481V158.132H100.57V64.0573Z" fill="#EBEBEB"/>
<path d="M57.4805 124.838C57.381 116.053 64.9457 107.476 73.2767 106.247C77.2492 105.635 81.4674 106.485 85.1766 104.896C91.7993 102.059 93.9055 92.8642 100.575 90.1376L100.879 158.132H57.4805V124.838Z" fill="#E0E0E0"/>
<path d="M225.506 269.912C226.375 269.361 227.312 268.935 228.291 268.646L228.876 265.767L233.527 265.681L234.2 268.536C235.186 268.792 236.137 269.182 237.026 269.698L239.366 268.09L242.712 271.465L241.255 273.977C241.781 274.887 242.188 275.866 242.466 276.887L245.222 277.499L245.304 282.39L242.548 283.056C242.303 284.087 241.929 285.079 241.437 286.009L242.975 288.454L239.746 291.951L237.336 290.429C236.466 290.98 235.529 291.405 234.551 291.694L233.966 294.574L229.315 294.659L228.642 291.798C227.655 291.545 226.705 291.156 225.816 290.643L223.476 292.251L220.129 288.87L221.586 286.357C221.059 285.449 220.652 284.47 220.375 283.447L217.62 282.836L217.538 277.976L220.317 277.297C220.561 276.266 220.935 275.273 221.428 274.344L219.889 271.899L223.119 268.396L225.529 269.924L225.506 269.912ZM227.987 276.392C227.3 277.135 226.839 278.074 226.663 279.09C226.486 280.106 226.602 281.154 226.996 282.101C227.39 283.049 228.044 283.853 228.875 284.411C229.706 284.97 230.677 285.259 231.666 285.241C232.654 285.223 233.615 284.899 234.427 284.31C235.239 283.722 235.866 282.895 236.228 281.934C236.59 280.972 236.671 279.921 236.461 278.912C236.251 277.902 235.759 276.981 235.048 276.264C234.577 275.787 234.02 275.413 233.41 275.161C232.799 274.91 232.148 274.786 231.492 274.798C230.836 274.81 230.189 274.957 229.587 275.231C228.986 275.504 228.442 275.899 227.987 276.392Z" fill="#F5F5F5"/>
<path d="M292.746 298.823C292.746 298.823 293.021 298.823 293.583 298.823H296.128V298.878C282.964 298.945 229.356 299 165.264 299L70.323 298.951L41.5562 298.878H33.7341H31.6982H31.0078H31.6982H33.7341L41.5562 298.847L70.323 298.798L165.264 298.749C229.356 298.749 282.964 298.804 296.128 298.872V298.878H293.583C293.021 298.835 292.746 298.823 292.746 298.823Z" fill="#263238"/>
<path d="M270.859 61.2881H139.732V254.628H270.859V61.2881Z" fill="white"/>
<path d="M270.859 254.628C270.859 253.338 270.801 175.501 270.719 61.2881L270.859 61.4287H139.744L139.896 61.2698C139.896 133.721 139.896 200.719 139.867 254.61L139.744 254.481L270.871 254.61L139.744 254.738H139.581V254.61C139.581 200.719 139.581 133.721 139.581 61.2698V61.123H139.744H270.859H271V61.2698C270.918 175.501 270.859 253.338 270.859 254.628Z" fill="#263238"/>
<path d="M200.624 189.654H152.475C150.313 189.654 148.561 191.485 148.561 193.744V198.977C148.561 201.236 150.313 203.067 152.475 203.067H200.624C202.786 203.067 204.538 201.236 204.538 198.977V193.744C204.538 191.485 202.786 189.654 200.624 189.654Z" fill="#F5F5F5"/>
<path d="M259.035 189.654H212.126C209.964 189.654 208.212 191.485 208.212 193.744V198.977C208.212 201.236 209.964 203.067 212.126 203.067H259.035C261.197 203.067 262.949 201.236 262.949 198.977V193.744C262.949 191.485 261.197 189.654 259.035 189.654Z" fill="#F5F5F5"/>
<path d="M259.807 217.14H152.211C150.05 217.14 148.297 218.971 148.297 221.23V226.463C148.297 228.722 150.05 230.553 152.211 230.553H259.807C261.969 230.553 263.721 228.722 263.721 226.463V221.23C263.721 218.971 261.969 217.14 259.807 217.14Z" fill="#F5F5F5"/>
<path d="M174.262 184.255C174.262 184.341 168.856 184.414 162.181 184.414C155.505 184.414 150.1 184.341 150.1 184.255C150.1 184.17 155.505 184.096 162.181 184.096C168.856 184.096 174.262 184.17 174.262 184.255Z" fill="#263238"/>
<path d="M231.433 184.255C231.433 184.341 227.174 184.414 221.92 184.414C216.666 184.414 212.401 184.341 212.401 184.255C212.401 184.17 216.661 184.096 221.92 184.096C227.18 184.096 231.433 184.17 231.433 184.255Z" fill="#263238"/>
<path d="M189.602 211.607C189.602 211.693 180.826 211.766 170.003 211.766C159.18 211.766 150.404 211.693 150.404 211.607C150.404 211.522 159.18 211.448 170.003 211.448C180.826 211.448 189.602 211.522 189.602 211.607Z" fill="#263238"/>
<path d="M259.913 159.202H150.047C147.943 159.202 146.238 160.984 146.238 163.182V169.882C146.238 172.081 147.943 173.862 150.047 173.862H259.913C262.016 173.862 263.722 172.081 263.722 169.882V163.182C263.722 160.984 262.016 159.202 259.913 159.202Z" fill="#E0E0E0"/>
<path d="M230.005 166.532C230.005 166.624 219.58 166.691 206.726 166.691C193.873 166.691 183.441 166.624 183.441 166.532C183.441 166.441 193.867 166.373 206.726 166.373C219.586 166.373 230.005 166.447 230.005 166.532Z" fill="#263238"/>
<path d="M259.913 70.0671H150.047C147.943 70.0671 146.238 71.849 146.238 74.047V80.7475C146.238 82.9455 147.943 84.7274 150.047 84.7274H259.913C262.016 84.7274 263.722 82.9455 263.722 80.7475V74.047C263.722 71.849 262.016 70.0671 259.913 70.0671Z" fill="#E0E0E0"/>
<path d="M230.005 77.3974C230.005 77.4829 219.58 77.5563 206.726 77.5563C193.873 77.5563 183.441 77.4829 183.441 77.3974C183.441 77.3118 193.867 77.2384 206.726 77.2384C219.586 77.2384 230.005 77.3057 230.005 77.3974Z" fill="#263238"/>
<path d="M270.859 88.2731C270.859 88.3648 241.478 88.4382 205.24 88.4382C169.002 88.4382 139.609 88.3648 139.609 88.2731C139.609 88.1814 168.99 88.1141 205.24 88.1141C241.489 88.1141 270.859 88.1875 270.859 88.2731Z" fill="#EBEBEB"/>
<path d="M270.859 153.131C270.859 153.223 241.478 153.29 205.24 153.29C169.002 153.29 139.609 153.223 139.609 153.131C139.609 153.04 168.99 152.973 205.24 152.973C241.489 152.973 270.859 153.046 270.859 153.131Z" fill="#EBEBEB"/>
<path d="M200.624 102.976H152.475C150.313 102.976 148.561 104.807 148.561 107.066V112.299C148.561 114.558 150.313 116.389 152.475 116.389H200.624C202.786 116.389 204.538 114.558 204.538 112.299V107.066C204.538 104.807 202.786 102.976 200.624 102.976Z" fill="#F5F5F5"/>
<path d="M259.035 102.976H212.126C209.964 102.976 208.212 104.807 208.212 107.066V112.299C208.212 114.558 209.964 116.389 212.126 116.389H259.035C261.197 116.389 262.949 114.558 262.949 112.299V107.066C262.949 104.807 261.197 102.976 259.035 102.976Z" fill="#F5F5F5"/>
<path d="M259.807 130.463H152.211C150.05 130.463 148.297 132.294 148.297 134.552V139.786C148.297 142.044 150.05 143.876 152.211 143.876H259.807C261.969 143.876 263.721 142.044 263.721 139.786V134.552C263.721 132.294 261.969 130.463 259.807 130.463Z" fill="#F5F5F5"/>
<path d="M174.262 97.578C174.262 97.6636 168.856 97.737 162.181 97.737C155.505 97.737 150.1 97.6636 150.1 97.578C150.1 97.4924 155.505 97.4191 162.181 97.4191C168.856 97.4191 174.262 97.4924 174.262 97.578Z" fill="#263238"/>
<path d="M231.433 97.578C231.433 97.6636 227.174 97.737 221.92 97.737C216.666 97.737 212.401 97.6636 212.401 97.578C212.401 97.4924 216.661 97.4191 221.92 97.4191C227.18 97.4191 231.433 97.4924 231.433 97.578Z" fill="#263238"/>
<path d="M189.602 124.93C189.602 125.016 180.826 125.089 170.003 125.089C159.18 125.089 150.404 125.016 150.404 124.93C150.404 124.844 159.18 124.771 170.003 124.771C180.826 124.771 189.602 124.844 189.602 124.93Z" fill="#263238"/>
<path d="M259.673 238.703C259.673 238.794 251.114 238.861 240.554 238.861C229.994 238.861 221.44 238.794 221.44 238.703C221.44 238.611 229.994 238.544 240.554 238.544C251.114 238.544 259.673 238.617 259.673 238.703Z" fill="#263238"/>
<path d="M195.944 111.089C195.647 111.191 195.344 111.27 195.037 111.327C192.74 111.769 190.367 111.415 188.28 110.318C187.892 110.108 187.541 109.829 187.244 109.493C186.919 109.132 186.701 108.68 186.618 108.191C186.565 107.93 186.563 107.661 186.615 107.4C186.666 107.139 186.769 106.892 186.917 106.675C187.09 106.45 187.323 106.284 187.586 106.197C187.849 106.11 188.131 106.106 188.397 106.186C188.537 106.228 188.667 106.301 188.779 106.399C188.89 106.497 188.982 106.618 189.046 106.754C189.175 107.031 189.214 107.345 189.157 107.647C189.035 108.24 188.756 108.784 188.35 109.218C187.552 110.154 186.548 110.874 185.425 111.315C184.216 111.792 182.905 111.915 181.634 111.67C180.958 111.549 180.321 111.257 179.779 110.82C179.487 110.596 179.251 110.301 179.094 109.959C178.937 109.618 178.863 109.242 178.878 108.863C178.916 108.475 179.056 108.105 179.282 107.794C179.503 107.462 179.831 107.223 180.206 107.121C180.404 107.08 180.609 107.094 180.801 107.16C180.993 107.226 181.165 107.344 181.3 107.5C181.557 107.815 181.696 108.217 181.692 108.631C181.699 109.036 181.606 109.436 181.423 109.793C181.226 110.144 180.953 110.443 180.627 110.667C179.978 111.073 179.271 111.368 178.533 111.541C177.111 111.963 175.561 112.422 173.981 112.049C173.189 111.869 172.463 111.458 171.887 110.863C171.588 110.559 171.353 110.195 171.196 109.792C171.039 109.389 170.963 108.956 170.974 108.521C170.98 108.242 171.04 107.966 171.149 107.711C171.259 107.456 171.416 107.226 171.612 107.035C171.828 106.858 172.087 106.747 172.36 106.717C172.634 106.687 172.91 106.738 173.156 106.864C173.411 106.984 173.616 107.194 173.735 107.457C173.854 107.721 173.879 108.02 173.806 108.301C173.648 108.819 173.326 109.266 172.893 109.566C171.323 110.692 169.517 111.409 167.628 111.657C166.708 111.823 165.762 111.737 164.884 111.407C164.451 111.224 164.07 110.929 163.775 110.551C163.48 110.173 163.282 109.722 163.199 109.242C163.129 108.761 163.233 108.27 163.49 107.865C163.748 107.459 164.14 107.168 164.591 107.048C164.821 107.002 165.058 107.02 165.278 107.102C165.498 107.184 165.693 107.325 165.843 107.512C166.119 107.875 166.273 108.321 166.282 108.784C166.302 109.231 166.209 109.676 166.013 110.074C165.805 110.449 165.521 110.772 165.182 111.022C164.527 111.469 163.8 111.788 163.035 111.963C161.602 112.36 160.11 112.642 158.753 112.122C158.112 111.88 157.549 111.457 157.126 110.899C156.717 110.365 156.509 109.693 156.541 109.01C156.603 108.377 156.881 107.789 157.325 107.353C157.526 107.143 157.774 106.988 158.047 106.902C158.32 106.817 158.608 106.804 158.887 106.864H158.946V106.925C158.964 108.125 158.546 109.288 157.775 110.178C157.228 110.848 156.519 111.352 155.722 111.639C155.23 111.817 154.708 111.887 154.189 111.847C153.838 111.792 153.663 111.743 153.663 111.743C154.344 111.859 155.043 111.792 155.693 111.547C156.465 111.253 157.149 110.751 157.676 110.092C158.399 109.218 158.783 108.093 158.753 106.938L158.817 107.017C158.566 106.969 158.307 106.985 158.063 107.065C157.82 107.145 157.598 107.286 157.419 107.476C157.014 107.882 156.763 108.427 156.711 109.01C156.623 110.233 157.565 111.456 158.793 111.896C160.022 112.336 161.514 112.11 162.936 111.706C163.669 111.535 164.367 111.227 164.995 110.795C165.3 110.569 165.555 110.277 165.744 109.939C165.918 109.585 165.999 109.188 165.978 108.79C165.97 108.393 165.838 108.008 165.603 107.696C165.485 107.546 165.33 107.432 165.155 107.367C164.98 107.301 164.791 107.286 164.609 107.323C164.227 107.431 163.897 107.682 163.681 108.028C163.465 108.374 163.379 108.791 163.439 109.2C163.517 109.627 163.697 110.026 163.962 110.362C164.226 110.697 164.568 110.958 164.954 111.119C165.787 111.428 166.682 111.506 167.552 111.346C169.389 111.102 171.145 110.401 172.671 109.304C173.045 109.045 173.327 108.665 173.472 108.222C173.528 108.01 173.509 107.785 173.418 107.588C173.328 107.39 173.173 107.233 172.981 107.146C172.787 107.049 172.572 107.01 172.358 107.032C172.144 107.055 171.941 107.138 171.77 107.274C171.605 107.436 171.473 107.631 171.382 107.847C171.29 108.064 171.241 108.297 171.237 108.533C171.229 108.923 171.298 109.311 171.44 109.672C171.582 110.033 171.794 110.359 172.062 110.63C172.597 111.182 173.271 111.564 174.005 111.731C175.479 112.085 176.994 111.657 178.41 111.235C179.116 111.069 179.793 110.788 180.417 110.404C180.706 110.21 180.948 109.948 181.125 109.64C181.283 109.33 181.363 108.983 181.359 108.631C181.365 108.29 181.252 107.958 181.043 107.696C180.942 107.577 180.814 107.488 180.67 107.438C180.526 107.387 180.372 107.377 180.224 107.408C179.922 107.516 179.657 107.714 179.46 107.976C179.264 108.239 179.145 108.556 179.118 108.888C179.113 109.22 179.186 109.548 179.331 109.843C179.476 110.138 179.688 110.392 179.949 110.581C180.463 110.993 181.065 111.268 181.704 111.382C182.927 111.618 184.189 111.502 185.355 111.046C186.448 110.63 187.427 109.94 188.204 109.035C188.581 108.637 188.845 108.137 188.964 107.592C189.033 107.348 189.011 107.087 188.902 106.86C188.794 106.633 188.607 106.458 188.379 106.369C188.155 106.299 187.916 106.3 187.693 106.373C187.47 106.446 187.273 106.588 187.127 106.779C186.996 106.971 186.903 107.19 186.856 107.421C186.809 107.653 186.807 107.892 186.852 108.124C186.947 108.56 187.137 108.968 187.407 109.316C187.677 109.663 188.019 109.942 188.409 110.129C189.654 110.808 191.016 111.224 192.416 111.352C193.302 111.426 194.193 111.394 195.072 111.254L195.757 111.119C195.818 111.105 195.881 111.095 195.944 111.089Z" fill="#FF770F"/>
<path d="M253.179 110.361C252.947 110.514 252.7 110.641 252.442 110.74C251.709 111.053 250.928 111.225 250.137 111.248C248.878 111.295 247.63 110.991 246.521 110.368C245.809 109.999 245.204 109.44 244.766 108.747C244.524 108.353 244.413 107.887 244.45 107.421C244.476 107.174 244.549 106.935 244.666 106.718C244.782 106.502 244.94 106.312 245.129 106.161C245.332 105.996 245.585 105.909 245.843 105.917C246.107 105.926 246.359 106.037 246.55 106.229C246.733 106.427 246.87 106.666 246.952 106.927C247.034 107.189 247.059 107.466 247.024 107.739C246.93 108.291 246.672 108.797 246.287 109.188C245.908 109.587 245.479 109.93 245.012 110.209C244.035 110.81 242.941 111.176 241.812 111.278C240.603 111.424 239.38 111.187 238.301 110.6C237.737 110.283 237.267 109.809 236.944 109.23C236.783 108.928 236.678 108.596 236.634 108.252C236.602 107.718 236.733 107.188 237.01 106.738C237.287 106.288 237.694 105.943 238.173 105.752C238.346 105.695 238.529 105.676 238.71 105.695C238.891 105.714 239.066 105.77 239.226 105.862C239.54 106.046 239.787 106.334 239.928 106.681C240.066 107.023 240.131 107.392 240.118 107.763C240.104 108.134 240.014 108.497 239.852 108.827C239.52 109.472 239.042 110.022 238.459 110.429C237.298 111.268 235.94 111.759 234.53 111.847C233.121 111.935 231.716 111.618 230.467 110.93C229.852 110.603 229.294 110.169 228.818 109.646C228.316 109.125 228.023 108.423 227.999 107.684C228.006 107.311 228.115 106.949 228.315 106.64C228.514 106.331 228.794 106.088 229.122 105.941C229.294 105.87 229.48 105.845 229.664 105.868C229.848 105.89 230.023 105.959 230.175 106.07C230.464 106.287 230.671 106.602 230.76 106.962C230.842 107.302 230.85 107.657 230.782 108C230.714 108.343 230.572 108.665 230.368 108.943C229.989 109.468 229.533 109.926 229.017 110.3C228.081 111.023 227.01 111.531 225.874 111.79C224.738 112.049 223.561 112.054 222.423 111.804C221.365 111.604 220.413 111.009 219.744 110.129C219.433 109.7 219.26 109.181 219.246 108.644C219.232 108.13 219.354 107.622 219.597 107.176C219.71 106.958 219.864 106.765 220.05 106.611C220.236 106.456 220.45 106.343 220.68 106.278C220.9 106.226 221.129 106.226 221.35 106.278C221.57 106.329 221.777 106.432 221.955 106.577C222.273 106.841 222.52 107.186 222.672 107.579C222.824 107.973 222.875 108.4 222.821 108.821C222.701 109.543 222.333 110.196 221.785 110.655C221.341 111.041 220.819 111.317 220.258 111.462C219.491 111.642 218.701 111.694 217.918 111.615L217.333 111.56C217.265 111.569 217.196 111.569 217.128 111.56C217.196 111.552 217.265 111.552 217.333 111.56H217.947C218.733 111.612 219.522 111.542 220.288 111.352C220.826 111.199 221.326 110.923 221.75 110.545C222.253 110.082 222.576 109.442 222.657 108.747C222.701 108.362 222.65 107.97 222.509 107.611C222.368 107.251 222.141 106.935 221.85 106.693C221.692 106.569 221.511 106.482 221.318 106.439C221.125 106.396 220.925 106.397 220.732 106.443C220.532 106.506 220.346 106.609 220.184 106.748C220.023 106.886 219.889 107.057 219.79 107.25C219.56 107.664 219.451 108.139 219.477 108.618C219.503 109.096 219.663 109.555 219.937 109.94C220.578 110.763 221.481 111.319 222.482 111.505C223.584 111.747 224.724 111.743 225.825 111.492C226.926 111.241 227.964 110.75 228.87 110.05C229.358 109.688 229.789 109.249 230.146 108.747C230.325 108.506 230.449 108.226 230.509 107.927C230.569 107.628 230.563 107.319 230.491 107.023C230.423 106.734 230.259 106.478 230.029 106.302C229.916 106.219 229.785 106.167 229.649 106.15C229.512 106.133 229.373 106.151 229.245 106.204C228.973 106.33 228.741 106.534 228.576 106.793C228.411 107.052 228.32 107.355 228.315 107.665C228.344 108.323 228.609 108.945 229.058 109.408C229.513 109.904 230.045 110.317 230.631 110.63C231.834 111.282 233.181 111.584 234.534 111.505C235.886 111.423 237.19 110.951 238.301 110.141C238.85 109.777 239.304 109.278 239.623 108.686C239.765 108.398 239.845 108.081 239.859 107.757C239.872 107.433 239.817 107.109 239.7 106.809C239.6 106.521 239.4 106.283 239.14 106.142C238.88 106 238.579 105.966 238.295 106.045C237.882 106.215 237.531 106.517 237.292 106.908C237.052 107.299 236.937 107.758 236.962 108.222C237 108.525 237.093 108.817 237.236 109.084C237.532 109.616 237.963 110.053 238.483 110.343C239.505 110.904 240.664 111.133 241.812 111.003C242.898 110.901 243.949 110.548 244.889 109.97C245.338 109.707 245.751 109.382 246.117 109.004C246.468 108.652 246.705 108.195 246.796 107.696C246.828 107.461 246.808 107.221 246.739 106.995C246.671 106.768 246.554 106.561 246.398 106.388C246.247 106.235 246.048 106.146 245.838 106.136C245.628 106.126 245.422 106.196 245.257 106.333C245.096 106.467 244.961 106.633 244.86 106.822C244.76 107.011 244.696 107.218 244.672 107.433C244.639 107.861 244.738 108.29 244.953 108.656C245.374 109.319 245.953 109.856 246.632 110.215C247.705 110.838 248.916 111.154 250.143 111.132C250.921 111.117 251.692 110.968 252.424 110.692C252.927 110.496 253.167 110.343 253.179 110.361Z" fill="#FF770F"/>
<path d="M198.787 137.365C198.717 137.411 198.643 137.45 198.565 137.481L197.892 137.799C197.307 138.074 196.423 138.477 195.271 138.93C193.869 139.495 192.414 139.905 190.93 140.152C190 140.295 189.061 140.354 188.122 140.33C187.061 140.351 186.005 140.186 184.997 139.841C184.432 139.64 183.922 139.3 183.508 138.85C183.095 138.4 182.791 137.853 182.622 137.255C182.536 136.93 182.512 136.59 182.552 136.255C182.592 135.92 182.696 135.597 182.856 135.304C183.018 134.993 183.249 134.727 183.53 134.529C183.811 134.331 184.134 134.207 184.471 134.167C184.827 134.161 185.176 134.265 185.475 134.466C185.774 134.668 186.009 134.957 186.15 135.298C186.469 135.976 186.522 136.757 186.296 137.475C186.051 138.188 185.629 138.821 185.074 139.309C184.517 139.802 183.899 140.213 183.236 140.531C181.87 141.274 180.29 141.467 178.796 141.076C178.023 140.826 177.329 140.365 176.785 139.739C176.242 139.113 175.869 138.345 175.707 137.517C175.637 137.091 175.637 136.654 175.707 136.228C175.763 135.779 175.937 135.356 176.21 135.005C176.34 134.814 176.507 134.655 176.701 134.538C176.895 134.421 177.111 134.349 177.333 134.326C177.57 134.322 177.803 134.395 177.997 134.537C178.191 134.679 178.338 134.881 178.416 135.115C178.528 135.555 178.547 136.015 178.472 136.464C178.397 136.912 178.23 137.338 177.983 137.713C177.551 138.482 176.997 139.168 176.345 139.743C175.062 140.89 173.422 141.508 171.734 141.481C170.046 141.454 168.425 140.784 167.177 139.596C166.577 139.013 166.167 138.247 166.007 137.407C165.927 136.984 165.953 136.546 166.083 136.136C166.225 135.734 166.46 135.375 166.767 135.09C167.071 134.8 167.453 134.614 167.861 134.559C168.071 134.527 168.284 134.544 168.486 134.609C168.689 134.673 168.875 134.783 169.032 134.931C169.306 135.231 169.498 135.601 169.59 136.004C169.681 136.407 169.668 136.828 169.552 137.224C169.324 137.967 168.905 138.631 168.341 139.144C167.822 139.649 167.251 140.094 166.639 140.47C165.468 141.193 164.168 141.655 162.818 141.828C161.557 142.001 160.275 141.882 159.062 141.479C158.486 141.277 157.958 140.945 157.518 140.507C157.091 140.083 156.8 139.532 156.681 138.93C156.554 138.355 156.608 137.753 156.833 137.212C156.941 136.951 157.11 136.723 157.325 136.549C157.54 136.375 157.793 136.26 158.062 136.215C158.314 136.175 158.571 136.191 158.817 136.262C159.063 136.332 159.292 136.456 159.489 136.625C159.675 136.787 159.816 136.999 159.895 137.238C159.974 137.477 159.99 137.734 159.94 137.982C159.842 138.434 159.606 138.839 159.267 139.138C158.968 139.411 158.636 139.641 158.278 139.822C157.661 140.142 157.017 140.4 156.354 140.593C155.44 140.866 154.496 141.012 153.545 141.027C153.215 141.039 152.885 141.025 152.557 140.984H152.808C152.978 140.984 153.224 140.984 153.545 140.984C154.485 140.94 155.417 140.775 156.318 140.495C156.971 140.29 157.605 140.026 158.214 139.706C158.558 139.528 158.876 139.302 159.162 139.034C159.46 138.753 159.665 138.38 159.747 137.97C159.789 137.753 159.773 137.527 159.702 137.318C159.631 137.109 159.507 136.925 159.343 136.784C159.164 136.637 158.958 136.529 158.738 136.468C158.517 136.407 158.287 136.394 158.062 136.429C157.826 136.471 157.604 136.575 157.416 136.731C157.229 136.887 157.083 137.091 156.991 137.322C156.787 137.819 156.742 138.373 156.863 138.899C157.005 139.465 157.288 139.981 157.682 140.397C158.077 140.812 158.569 141.112 159.109 141.265C160.286 141.652 161.532 141.761 162.754 141.583C164.763 141.32 166.641 140.4 168.119 138.954C168.648 138.477 169.04 137.858 169.254 137.163C169.355 136.819 169.367 136.454 169.289 136.104C169.211 135.754 169.045 135.431 168.809 135.17C168.534 134.951 168.191 134.847 167.847 134.879C167.503 134.911 167.183 135.075 166.949 135.341C166.686 135.591 166.486 135.904 166.364 136.252C166.251 136.613 166.229 136.998 166.299 137.371C166.457 138.147 166.844 138.853 167.405 139.388C168.602 140.523 170.154 141.162 171.77 141.185C173.386 141.209 174.954 140.616 176.181 139.517C176.81 138.967 177.342 138.307 177.755 137.566C177.968 137.216 178.121 136.829 178.205 136.423C178.299 136.034 178.287 135.625 178.17 135.243C178.116 135.068 178.011 134.914 177.869 134.805C177.728 134.695 177.556 134.635 177.38 134.632C177.201 134.655 177.028 134.716 176.873 134.813C176.717 134.91 176.583 135.04 176.479 135.194C176.26 135.517 176.107 135.883 176.032 136.271C175.956 136.658 175.959 137.058 176.04 137.444C176.193 138.215 176.541 138.93 177.047 139.514C177.553 140.098 178.199 140.529 178.919 140.764C180.343 141.138 181.85 140.955 183.155 140.25C184.43 139.608 185.653 138.679 186.08 137.352C186.285 136.704 186.239 135.997 185.951 135.384C185.835 135.089 185.636 134.837 185.382 134.661C185.128 134.484 184.829 134.391 184.524 134.393C184.227 134.43 183.943 134.54 183.696 134.714C183.449 134.888 183.245 135.122 183.102 135.396C182.955 135.66 182.86 135.951 182.823 136.254C182.786 136.556 182.807 136.863 182.885 137.157C183.042 137.721 183.325 138.237 183.712 138.662C184.099 139.088 184.578 139.41 185.109 139.602C186.092 139.948 187.125 140.117 188.163 140.103C189.091 140.135 190.021 140.084 190.942 139.951C192.416 139.726 193.865 139.342 195.265 138.807C196.435 138.373 197.301 137.988 197.904 137.738L198.588 137.444L198.787 137.365Z" fill="#FF770F"/>
<path d="M78.8408 111.963L78.1797 167.669C78.0685 177.139 79.7535 191.078 94.0929 190.583C106.508 189.171 109.801 176.895 109.889 168.054C109.936 163.861 109.983 160.364 110.012 159.936C110.012 159.936 123.597 158.774 124.744 144.75C125.299 137.976 125.329 123.921 125.264 111.205C125.213 104.619 122.791 98.2942 118.479 93.4898C114.168 88.6854 108.283 85.7535 101.997 85.2774L100.698 85.1735C86.6687 84.9656 78.6594 97.2966 78.8408 111.963Z" fill="#FFBE9D"/>
<path d="M110.018 159.936C110.018 159.936 101.517 159.807 92.9111 153.211C92.9111 153.211 96.4565 163.787 109.948 163.543L110.018 159.936Z" fill="#FF770F" fill-opacity="0.89"/>
<path d="M102.324 116.952C102.061 117.239 100.511 115.931 98.2584 115.87C96.006 115.808 94.3327 116.958 94.0987 116.658C93.9817 116.524 94.2567 116.004 94.9938 115.466C95.9793 114.775 97.1488 114.429 98.3345 114.476C99.5075 114.507 100.639 114.936 101.558 115.698C102.237 116.291 102.459 116.829 102.324 116.952Z" fill="#263238"/>
<path d="M102.26 121.812C102.228 122.306 102.014 122.768 101.663 123.1C101.311 123.432 100.85 123.608 100.376 123.591C99.9107 123.591 99.4643 123.398 99.1352 123.054C98.806 122.71 98.6211 122.243 98.6211 121.757C98.6513 121.263 98.8642 120.802 99.2148 120.469C99.5655 120.137 100.026 119.961 100.499 119.978C100.73 119.977 100.959 120.024 101.173 120.116C101.386 120.208 101.58 120.343 101.744 120.513C101.908 120.683 102.037 120.886 102.126 121.109C102.214 121.332 102.26 121.571 102.26 121.812Z" fill="#263238"/>
<path d="M107.988 133.293C107.988 133.171 109.287 133.036 111.381 132.92C111.913 132.92 112.422 132.828 112.551 132.462C112.637 131.897 112.555 131.319 112.317 130.805L111.001 126.476C109.246 120.363 108.035 115.313 108.269 115.24C108.503 115.166 110.117 120.088 111.861 126.244C112.282 127.76 112.68 129.197 113.031 130.579C113.189 131.221 113.481 131.954 113.154 132.761C113.064 132.95 112.934 133.115 112.774 133.244C112.614 133.372 112.427 133.46 112.229 133.501C111.933 133.561 111.63 133.582 111.328 133.562C109.257 133.507 107.988 133.421 107.988 133.293Z" fill="#263238"/>
<path d="M101.371 108.136C101.155 108.662 99.3526 108.264 97.1996 108.38C95.0467 108.497 93.2681 108.992 93.0224 108.497C92.9112 108.252 93.2447 107.775 93.976 107.311C94.9406 106.736 96.0253 106.417 97.1353 106.381C98.2379 106.321 99.3377 106.547 100.335 107.042C101.096 107.421 101.465 107.873 101.371 108.136Z" fill="#263238"/>
<path d="M122.719 112.47C122.485 112.898 120.73 112.428 118.624 112.36C116.518 112.293 114.733 112.574 114.529 112.128C114.435 111.92 114.786 111.517 115.523 111.199C116.523 110.784 117.596 110.599 118.671 110.655C119.755 110.69 120.82 110.965 121.795 111.462C122.485 111.859 122.824 112.269 122.719 112.47Z" fill="#263238"/>
<path d="M79.2154 122.442C78.9931 122.319 70.1823 118.884 69.8079 128.5C69.4335 138.117 78.7357 136.533 78.7767 136.258C78.8176 135.983 79.2154 122.442 79.2154 122.442Z" fill="#FFBE9D"/>
<path d="M76.1087 132.492C76.0678 132.462 75.939 132.602 75.6641 132.718C75.2881 132.873 74.87 132.873 74.494 132.718C73.5345 132.303 72.7798 130.658 72.8032 128.922C72.8129 128.097 72.9988 127.284 73.3473 126.544C73.4457 126.248 73.6118 125.982 73.831 125.769C74.0502 125.556 74.316 125.402 74.6051 125.321C74.7903 125.277 74.9846 125.302 75.1537 125.393C75.3227 125.483 75.4558 125.633 75.5295 125.816C75.6465 126.091 75.5763 126.281 75.629 126.299C75.6816 126.318 75.8337 126.146 75.7694 125.749C75.7287 125.511 75.611 125.295 75.4359 125.138C75.19 124.927 74.8754 124.824 74.5583 124.85C74.1735 124.911 73.8099 125.073 73.5025 125.323C73.1952 125.572 72.9544 125.9 72.8032 126.275C72.3825 127.091 72.1558 128.001 72.1421 128.928C72.1421 130.872 73.008 132.725 74.3185 133.207C74.5634 133.291 74.8229 133.318 75.0788 133.285C75.3346 133.252 75.5804 133.161 75.7986 133.018C76.0795 132.725 76.138 132.511 76.1087 132.492Z" fill="#FF770F" fill-opacity="0.89"/>
<path d="M105.788 139.957C105.887 139.712 104.085 139.15 102.816 137.377C102.288 136.603 101.859 135.761 101.54 134.87C101.271 134.167 101.066 133.733 100.955 133.764C100.844 133.794 100.879 134.265 101.031 135.029C101.222 136.044 101.622 137.003 102.201 137.842C102.802 138.679 103.612 139.328 104.542 139.718C105.285 140.018 105.758 140.036 105.788 139.957Z" fill="#263238"/>
<path d="M122.824 117.838C122.555 118.119 121.005 116.817 118.729 116.756C116.453 116.695 114.803 117.844 114.563 117.545C114.446 117.41 114.727 116.89 115.458 116.352C116.444 115.662 117.613 115.315 118.799 115.362C119.974 115.393 121.107 115.822 122.028 116.585C122.73 117.178 122.953 117.71 122.824 117.838Z" fill="#263238"/>
<path d="M122.456 122.497C122.424 122.991 122.21 123.453 121.858 123.785C121.507 124.117 121.046 124.293 120.572 124.276C120.107 124.276 119.66 124.082 119.331 123.739C119.002 123.395 118.817 122.928 118.817 122.442C118.849 121.948 119.063 121.486 119.414 121.154C119.766 120.822 120.227 120.646 120.701 120.663C121.166 120.663 121.613 120.856 121.942 121.2C122.271 121.544 122.456 122.01 122.456 122.497Z" fill="#263238"/>
<path d="M134.631 92.5831C133.716 91.0312 132.299 89.8746 130.636 89.3247C128.973 88.7747 127.177 88.868 125.574 89.5875C125.986 87.3616 125.689 85.0563 124.73 83.0227C123.772 80.9892 122.203 79.3391 120.263 78.3239C118.323 77.3086 116.119 76.984 113.986 77.3995C111.854 77.8149 109.909 78.9477 108.45 80.6251C108.334 80.0303 108.097 79.4685 107.754 78.978C107.412 78.4875 106.973 78.0797 106.467 77.7823C105.452 77.1912 104.326 76.8386 103.167 76.7491C100.421 76.4307 97.6427 76.8707 95.1101 78.0249C92.5775 79.1792 90.3789 81.0075 88.7338 83.3272C86.0578 82.9954 83.3447 83.3254 80.8132 84.2907C78.2817 85.256 76.0028 86.8296 74.1603 88.8844C69.8368 93.8914 69.0177 105.489 73.7566 115.509L74.8682 121.787C76.3542 121.787 77.7115 121.897 78.6301 122.753C79.8762 123.921 80.432 126.122 82.4972 125.29C83.5503 124.862 84.5098 122.558 84.8374 121.439C87.1738 113.975 87.9479 106.073 87.1074 98.2687C88.5826 96.6264 90.3464 95.296 92.3026 94.3499L92.1446 94.5028C95.8948 93.1394 100.136 91.8006 103.693 93.6407C106.455 95.0652 108.081 98.0608 110.129 100.445C112.034 102.65 114.347 104.43 116.928 105.676C119.509 106.922 122.305 107.609 125.147 107.696C125.346 111.645 125.03 117.227 125.229 121.145L128.464 114.861C128.716 114.409 128.944 113.944 129.149 113.467L129.219 113.32C129.804 112.825 130.237 111.92 131.22 110.746C132.159 109.593 132.777 108.192 133.007 106.697C133.237 105.202 133.07 103.67 132.525 102.267C133.931 101.187 134.918 99.6135 135.305 97.8351C135.691 96.0567 135.452 94.1923 134.631 92.5831Z" fill="#263238"/>
<path d="M129.125 92.73C129.125 92.73 129.16 92.7972 129.195 92.9378C129.243 93.1381 129.27 93.343 129.277 93.5492C129.307 94.3367 129.122 95.1168 128.745 95.799C128.477 96.2698 128.128 96.6845 127.715 97.0217C127.224 97.4141 126.647 97.6706 126.036 97.7675C125.326 97.8843 124.599 97.8066 123.926 97.5419C123.254 97.2772 122.658 96.8347 122.198 96.2575L122.426 96.0557C122.648 96.3093 122.819 96.6063 122.931 96.9294C123.042 97.2526 123.092 97.5956 123.076 97.9387C123.069 98.3975 122.974 98.8501 122.797 99.2701C122.62 99.69 122.365 100.069 122.046 100.384C121.441 100.946 120.677 101.287 119.87 101.356C118.528 101.458 117.193 101.074 116.09 100.268C115.355 99.7468 114.677 99.1441 114.066 98.4706C113.832 98.2369 113.616 97.9834 113.422 97.7125C113.68 97.9176 113.922 98.1423 114.148 98.385C114.784 99.0132 115.473 99.58 116.207 100.078C117.277 100.826 118.558 101.173 119.84 101.063C120.584 100.992 121.287 100.675 121.847 100.158C122.419 99.5793 122.751 98.7889 122.771 97.957C122.793 97.344 122.583 96.7466 122.186 96.2942L122.415 96.0863C122.841 96.6227 123.392 97.0358 124.015 97.2863C124.637 97.5367 125.311 97.6161 125.972 97.5169C126.505 97.4327 127.013 97.2241 127.459 96.9066C127.905 96.5891 128.276 96.1709 128.546 95.6828C128.919 95.0342 129.121 94.2937 129.131 93.537C129.178 93.0234 129.102 92.7361 129.125 92.73Z" fill="#455A64"/>
<path d="M117.612 82.1903C117.612 82.1903 117.682 82.1903 117.811 82.282C117.988 82.3896 118.158 82.5101 118.32 82.6427C118.931 83.1352 119.41 83.7836 119.712 84.5257C119.935 85.0863 120.023 85.6956 119.968 86.3001C119.913 86.9045 119.717 87.4855 119.396 87.992C119.009 88.6111 118.407 89.0493 117.717 89.2147C117.35 89.2979 116.97 89.3023 116.601 89.2277C116.232 89.1531 115.881 89.001 115.57 88.7807C115.378 88.6287 115.206 88.4497 115.061 88.2488L115.324 88.0899C115.457 88.4359 115.519 88.8071 115.507 89.1797C115.495 89.5523 115.409 89.9182 115.254 90.254C114.984 90.8801 114.512 91.3867 113.92 91.6846C113.429 91.9231 112.894 92.0467 112.352 92.0467C111.811 92.0467 111.276 91.9231 110.784 91.6846C110.137 91.3724 109.561 90.9202 109.094 90.358C108.911 90.1637 108.759 89.941 108.643 89.6977C108.643 89.6977 108.83 89.9117 109.175 90.2724C109.659 90.7898 110.233 91.205 110.866 91.4951C111.33 91.7028 111.83 91.8053 112.335 91.7958C112.839 91.7863 113.335 91.6651 113.791 91.4401C114.312 91.1576 114.724 90.6983 114.962 90.1379C115.095 89.841 115.17 89.5186 115.18 89.1905C115.19 88.8624 115.136 88.5357 115.02 88.2305L114.529 87.0506L115.283 88.0776C115.407 88.2506 115.555 88.4032 115.722 88.53C115.998 88.7267 116.31 88.8628 116.637 88.93C116.965 88.9973 117.303 88.9943 117.629 88.9213C118.243 88.7821 118.781 88.4011 119.133 87.8575C119.435 87.3907 119.624 86.8542 119.684 86.2941C119.745 85.734 119.674 85.1671 119.478 84.6418C119.206 83.9219 118.772 83.2804 118.214 82.7711C117.852 82.3676 117.594 82.2148 117.612 82.1903Z" fill="#455A64"/>
<path d="M195.745 152.312L174.478 169.271C174.18 169.51 173.933 169.811 173.75 170.153C173.567 170.496 173.453 170.874 173.415 171.265C173.378 171.655 173.417 172.05 173.53 172.424C173.643 172.798 173.829 173.144 174.075 173.441C174.535 173.997 175.182 174.346 175.882 174.418C176.582 174.49 177.282 174.278 177.836 173.826L198.898 156.708L201.747 150.833L195.745 152.312Z" fill="#FF770F" fill-opacity="0.89"/>
<path opacity="0.5" d="M199.021 151.499L200.524 153.333L198.898 156.708C198.702 156.729 198.505 156.704 198.32 156.634C198.135 156.563 197.968 156.45 197.831 156.302C197.695 156.154 197.592 155.975 197.532 155.78C197.471 155.584 197.454 155.377 197.482 155.173C197.29 155.201 197.094 155.179 196.912 155.107C196.73 155.036 196.568 154.919 196.44 154.766C196.313 154.613 196.223 154.43 196.181 154.232C196.138 154.034 196.143 153.828 196.195 153.633C196.195 153.633 195.089 153.529 195.715 152.312L199.021 151.499Z" fill="white"/>
<path d="M174.479 169.253L177.965 173.703L179.135 172.756L175.795 168.207L174.479 169.253Z" fill="#263238"/>
<path d="M172.928 211.736L172.162 211.589L187.806 183.014L185.325 174.773C185.325 174.773 182.458 163.041 184.845 160.046C184.845 160.046 190.07 153.614 191.767 153.706C193.463 153.798 194.815 154.146 195.154 155.479C195.154 155.479 198.038 155.124 198.799 156.09C199.307 156.759 199.762 157.47 200.156 158.218C200.156 158.218 203.292 157.949 204.14 160.786C204.14 160.786 207.106 162.381 207.364 164.68C207.621 166.979 206.779 177.702 205.837 180.447C204.895 183.192 201.426 188.951 200.414 197.454C199.401 205.958 195.809 211.479 192.621 223.901L183.968 227.478L172.928 211.736Z" fill="#FFBE9D"/>
<path d="M195.008 155.296C195.072 155.387 193.996 156.133 193.182 157.509C192.369 158.884 192.176 160.205 192.065 160.186C192.076 159.169 192.354 158.174 192.87 157.312C193.386 156.449 194.12 155.751 194.99 155.296H195.008Z" fill="#FF770F" fill-opacity="0.89"/>
<path d="M199.987 158.218C200.045 158.316 199.015 158.964 198.202 160.199C197.389 161.434 197.132 162.644 197.032 162.644C196.933 162.644 197.032 161.305 197.916 160.003C198.394 159.182 199.124 158.553 199.987 158.218Z" fill="#FF770F" fill-opacity="0.89"/>
<path d="M203.976 160.712C204.04 160.798 203.262 161.513 202.548 162.589C201.835 163.665 201.449 164.674 201.349 164.637C201.438 163.81 201.753 163.027 202.256 162.381C202.661 161.661 203.259 161.081 203.976 160.712Z" fill="#FF770F" fill-opacity="0.89"/>
<path d="M189.309 161.642C188.742 161.449 188.151 161.343 187.554 161.33C186.969 161.425 186.401 161.613 185.869 161.886C185.84 161.886 185.951 161.654 186.238 161.434C186.619 161.158 187.064 160.995 187.527 160.963C187.99 160.93 188.452 161.03 188.865 161.25C189.169 161.428 189.309 161.605 189.309 161.642Z" fill="#FF770F" fill-opacity="0.89"/>
<path d="M195.523 165.719C195.168 165.119 194.733 164.576 194.23 164.105C193.346 163.384 192.387 163.341 192.399 163.231C192.41 163.121 192.638 163.127 193.03 163.176C193.545 163.259 194.032 163.475 194.446 163.805C194.86 164.135 195.188 164.568 195.4 165.065C195.552 165.45 195.564 165.707 195.523 165.719Z" fill="#FF770F" fill-opacity="0.89"/>
<path d="M201.718 167.101C201.642 167.18 200.957 166.373 199.793 166.055C199.08 165.912 198.351 165.875 197.628 165.945C197.628 165.903 197.833 165.756 198.249 165.652C198.791 165.533 199.352 165.549 199.887 165.7C200.422 165.851 200.915 166.132 201.326 166.52C201.63 166.826 201.747 167.076 201.718 167.101Z" fill="#FF770F" fill-opacity="0.89"/>
<path d="M43.8727 198.274C43.8727 198.274 34.2721 255.178 34.746 260.503C35.2199 265.828 37.759 274.289 43.5217 275.738C47.1818 276.593 50.9774 276.593 54.6376 275.738L47.7282 205.842L43.8727 198.274Z" fill="#FF770F" fill-opacity="0.89"/>
<path d="M71.9488 168.917C71.9488 168.917 60.4702 177.476 57.9077 179.952C47.295 190.436 45.0776 194.728 43.8666 198.292C42.6556 201.856 51.2382 284.205 51.2382 284.205L52.9933 298.603L133.537 298.817V225.277L121.444 173.514L113.996 171.301L112.493 165.132C112.493 165.132 103.243 157.992 87.985 157.796C83.3046 157.729 76.6468 159.661 72.9376 162.687L71.9488 168.917Z" fill="#FF770F" fill-opacity="0.89"/>
<path d="M112.411 173.728C112.411 173.728 120.689 173.343 121.42 173.514C123.971 174.125 130.974 180.85 138.972 189.116C146.577 197.002 161.566 213.417 161.566 213.417C161.566 213.417 164.257 210.58 167.329 214.371L179.153 196.397C179.153 196.397 196.915 198.671 199.676 212.677C199.676 212.677 194.235 223.535 189.777 231.293C189.777 231.293 173.285 259.898 160.256 254.714C148.356 249.97 133.431 237.327 131.331 234.625L113.78 221.56C113.78 221.56 101.774 197.644 107.081 185.686L112.411 173.728Z" fill="#FF770F" fill-opacity="0.89"/>
<path d="M113.973 171.301C113.829 171.287 113.688 171.257 113.551 171.209L112.381 170.879C111.346 170.604 109.836 170.225 107.953 169.852C103.039 168.903 98.0742 168.264 93.0865 167.938C88.1018 167.569 83.0976 167.585 78.1152 167.987C76.2021 168.159 74.6692 168.409 73.6162 168.599L72.4051 168.849C72.2664 168.891 72.1225 168.912 71.978 168.911C72.1096 168.851 72.2469 168.806 72.3876 168.776L73.5869 168.458C75.0739 168.123 76.578 167.876 78.0918 167.718C83.0855 167.24 88.1082 167.189 93.1099 167.566C98.1076 167.888 103.078 168.566 107.988 169.595C109.872 170.005 111.375 170.421 112.411 170.745L113.581 171.142C113.717 171.179 113.848 171.232 113.973 171.301Z" fill="#263238"/>
<path d="M82.6025 167.021C82.503 167.021 82.2397 165.627 82.0174 163.873C81.7951 162.118 81.6723 160.694 81.7717 160.676C82.0786 161.699 82.2749 162.755 82.3568 163.824C82.5908 165.603 82.7019 167.009 82.6025 167.021Z" fill="#263238"/>
<path d="M85.6097 166.752C84.8099 164.733 84.6621 162.497 85.1885 160.382C85.2938 160.382 85.1358 161.825 85.2528 163.579C85.3699 165.334 85.7092 166.722 85.6097 166.752Z" fill="#263238"/>
<g opacity="0.3">
<path opacity="0.3" d="M72.2119 168.849C84.8138 171.179 97.5912 168.849 110.93 170.518C98.0593 167.731 84.6383 166.41 72.2119 168.849Z" fill="black"/>
</g>
<g opacity="0.3">
<path opacity="0.3" d="M50.0683 275.848C42.9775 258.492 43.82 238.88 44.8029 220.044L50.0683 275.848Z" fill="black"/>
</g>
<path d="M43.8723 210.678C43.8915 210.75 43.9033 210.824 43.9074 210.898C43.9074 211.063 43.9542 211.277 43.9835 211.54C44.042 212.151 44.1298 212.965 44.2351 214.028C44.4398 216.211 44.7382 219.329 45.1009 223.199C45.8205 230.914 46.8034 241.582 47.9794 253.35C49.1553 265.119 50.3195 275.763 51.2673 283.453C51.7295 287.299 52.1273 290.411 52.4374 292.556C52.572 293.614 52.6773 294.446 52.7475 295.032C52.7826 295.301 52.806 295.515 52.8235 295.68C52.8299 295.754 52.8299 295.827 52.8235 295.901C52.7998 295.831 52.7841 295.76 52.7767 295.687L52.6656 295.045C52.5778 294.433 52.4491 293.632 52.2912 292.599C51.9694 290.453 51.5306 287.348 51.0333 283.508C50.0329 275.824 48.816 265.168 47.64 253.405C46.4641 241.643 45.5222 230.963 44.8669 223.241C44.551 219.396 44.2819 216.272 44.1122 214.071C44.0361 213.007 43.9718 212.176 43.9308 211.583C43.9308 211.314 43.9308 211.1 43.8899 210.929C43.8742 210.846 43.8683 210.762 43.8723 210.678Z" fill="#263238"/>
<path d="M98.3992 201.367C98.2289 201.395 98.0565 201.405 97.8843 201.398H96.3924C95.1053 201.398 93.2332 201.398 90.9281 201.465C86.3121 201.575 79.9409 201.93 72.9496 202.792C65.9583 203.654 59.6808 204.901 55.1701 205.952C52.9118 206.46 51.0747 206.9 49.8403 207.224L48.3894 207.578C48.2226 207.626 48.0524 207.659 47.8804 207.676C48.0389 207.604 48.2034 207.547 48.3718 207.505L49.8052 207.083C51.0513 206.716 52.865 206.24 55.1174 205.696C66.8651 202.874 78.869 201.38 90.9223 201.239C93.2624 201.239 95.1053 201.239 96.3983 201.288L97.8843 201.349C98.0561 201.34 98.2283 201.347 98.3992 201.367Z" fill="#263238"/>
<path d="M67.4735 219.793C67.3741 219.793 67.5613 211.913 67.883 202.199C68.2048 192.484 68.5558 184.604 68.6553 184.61C68.7548 184.616 68.5675 192.49 68.2399 202.211C67.9123 211.931 67.5671 219.8 67.4735 219.793Z" fill="#263238"/>
<path d="M108.631 218.821C108.522 218.663 108.422 218.498 108.333 218.326C108.126 217.963 107.857 217.48 107.526 216.877L104.554 211.54C103.05 208.911 101.801 206.132 100.827 203.244C100.287 201.519 99.9143 199.741 99.7153 197.938C99.5454 195.997 99.5454 194.045 99.7153 192.105C99.9623 188.346 100.862 184.664 102.371 181.241C103.065 179.76 103.949 178.384 104.998 177.152C105.922 176.09 106.981 175.166 108.146 174.407C109.824 173.279 111.744 172.607 113.733 172.45C114.457 172.387 115.185 172.43 115.898 172.579C115.181 172.539 114.462 172.539 113.745 172.579C111.793 172.784 109.918 173.481 108.28 174.608C107.144 175.37 106.113 176.289 105.215 177.341C104.196 178.56 103.34 179.917 102.67 181.376C101.192 184.766 100.311 188.407 100.066 192.124C99.9024 194.037 99.9024 195.963 100.066 197.876C100.26 199.655 100.621 201.41 101.143 203.116C102.099 205.989 103.316 208.761 104.776 211.393L107.649 216.786L108.403 218.271C108.495 218.447 108.571 218.631 108.631 218.821Z" fill="#263238"/>
<g opacity="0.3">
<path opacity="0.3" d="M49.1846 207.609C54.2745 207.334 59.3354 206.636 64.3198 205.524C63.7048 207.825 63.4189 210.209 63.4715 212.598C65.052 210.737 66.2029 208.522 66.8355 206.123C67.0166 207.429 67.4484 208.682 68.105 209.808C68.7615 210.934 69.6292 211.91 70.6558 212.677C71.1573 210.312 71.272 207.875 70.9952 205.469C78.5267 204.524 86.0075 203.23 93.4376 201.587C78.3988 201.206 63.3891 203.157 48.8979 207.377" fill="black"/>
</g>
<path d="M146.016 246.834C145.892 246.778 145.776 246.706 145.67 246.62L144.705 245.947C143.874 245.336 142.681 244.498 141.195 243.416C138.27 241.264 134.227 238.238 129.833 234.814C125.439 231.391 121.514 228.212 118.717 225.883C117.313 224.721 116.178 223.767 115.4 223.101L114.511 222.331C114.402 222.246 114.302 222.15 114.212 222.043C114.332 222.112 114.445 222.192 114.552 222.282L115.476 223.003L118.852 225.705C121.701 227.992 125.644 231.134 130.038 234.558C134.432 237.981 138.41 241.032 141.335 243.245L144.775 245.861L145.705 246.577C145.815 246.653 145.919 246.739 146.016 246.834Z" fill="#263238"/>
<path d="M165.668 228.077C165.615 228.077 165.668 227.148 165.545 225.675C165.28 221.812 164.166 218.066 162.292 214.725C161.572 213.448 161.046 212.708 161.087 212.671C161.245 212.814 161.385 212.979 161.502 213.16C161.85 213.625 162.174 214.109 162.473 214.609C164.479 217.928 165.613 221.74 165.761 225.662C165.793 226.251 165.793 226.841 165.761 227.429C165.758 227.649 165.726 227.866 165.668 228.077Z" fill="#263238"/>
<path d="M169.295 226.689C169.311 226.059 169.36 225.431 169.441 224.806C169.55 223.299 169.522 221.784 169.359 220.282C169.193 218.78 168.889 217.298 168.452 215.856C168.119 214.744 167.867 214.077 167.902 214.053C168.003 214.188 168.084 214.339 168.142 214.499C168.335 214.917 168.507 215.346 168.657 215.783C169.662 218.676 170.003 221.775 169.651 224.831C169.581 225.412 169.505 225.882 169.435 226.2C169.41 226.369 169.363 226.534 169.295 226.689Z" fill="#263238"/>
<path d="M196.768 218.821C196.768 218.821 196.768 218.705 196.634 218.589C196.533 218.522 196.45 218.43 196.394 218.32C196.329 218.192 196.283 218.039 196.201 217.892C196.043 217.58 195.651 217.348 195.37 216.896C195.066 216.394 194.83 215.851 194.668 215.282C194.268 213.829 193.583 212.48 192.655 211.32C192.099 210.646 191.495 210.016 190.848 209.437C190.161 208.803 189.431 208.221 188.665 207.695C187.924 207.129 187.141 206.625 186.325 206.185L183.985 204.999C183.248 204.632 182.557 204.253 181.885 203.953L180.013 203.116C179.734 203.004 179.463 202.876 179.199 202.731C178.948 202.578 178.743 202.406 178.532 202.284L177.947 201.948C177.76 201.844 177.602 201.703 177.462 201.612C177.175 201.422 176.923 201.318 176.76 201.227C176.596 201.135 176.514 201.086 176.52 201.074C176.611 201.095 176.699 201.128 176.783 201.172C177.038 201.265 177.287 201.377 177.526 201.508C177.881 201.741 178.253 201.946 178.638 202.119C178.866 202.235 179.082 202.406 179.316 202.541C179.55 202.675 179.843 202.773 180.124 202.902L182.008 203.696C182.68 203.984 183.382 204.363 184.131 204.724L186.471 205.891C187.298 206.335 188.091 206.846 188.841 207.42C189.621 207.95 190.36 208.543 191.052 209.192C191.709 209.783 192.319 210.427 192.878 211.118C193.817 212.312 194.499 213.702 194.879 215.196C195.025 215.752 195.24 216.286 195.516 216.785C195.762 217.213 196.142 217.464 196.306 217.819C196.394 217.99 196.429 218.149 196.482 218.265C196.529 218.368 196.597 218.46 196.681 218.534C196.827 218.693 196.774 218.834 196.768 218.821Z" fill="#263238"/>
<path d="M121.713 297.398C121.631 297.398 121.561 281.931 121.561 262.851C121.561 243.771 121.631 228.303 121.713 228.303C121.795 228.303 121.865 243.771 121.865 262.851C121.865 281.931 121.801 297.398 121.713 297.398Z" fill="#263238"/>
</svg>
