<svg width="313" height="299" viewBox="0 0 313 299" fill="none" xmlns="http://www.w3.org/2000/svg">
<path d="M252.51 45.8237C235.27 1.89997 193.887 -14.6382 161.235 14.8533C148.485 26.3588 140.53 44.6701 124.918 52.0178C110.269 58.9087 91.7116 56.8802 75.8708 60.6121C42.1381 68.5096 -3.27776 98.4734 0.186979 144.643C1.70454 164.866 13.9143 187.327 19.9499 206.25C26.8793 228.023 31.037 255.261 49.3794 268.276C80.8254 290.622 118.757 272.357 147.085 254.34C162.33 244.654 170.722 238.7 187.138 242.021C202.334 245.118 216.02 255.958 230.869 243.097C242.019 233.442 242.941 213.877 252.302 202.387C262.849 189.441 273.541 188.504 279.022 169.047C285.668 145.44 275.876 130.69 269.259 109.6C262.641 88.5087 260.632 66.4887 252.51 45.8237Z" fill="#FF770F"/>
<g opacity="0.7">
<path opacity="0.7" d="M252.51 45.8237C235.27 1.89997 193.887 -14.6382 161.235 14.8533C148.485 26.3588 140.53 44.6701 124.918 52.0178C110.269 58.9087 91.7116 56.8802 75.8708 60.6121C42.1381 68.5096 -3.27776 98.4734 0.186979 144.643C1.70454 164.866 13.9143 187.327 19.9499 206.25C26.8793 228.023 31.037 255.261 49.3794 268.276C80.8254 290.622 118.757 272.357 147.085 254.34C162.33 244.654 170.722 238.7 187.138 242.021C202.334 245.118 216.02 255.958 230.869 243.097C242.019 233.442 242.941 213.877 252.302 202.387C262.849 189.441 273.541 188.504 279.022 169.047C285.668 145.44 275.876 130.69 269.259 109.6C262.641 88.5087 260.632 66.4887 252.51 45.8237Z" fill="white"/>
</g>
<path d="M157.896 299C217.054 299 265.012 295.662 265.012 291.544C265.012 287.426 217.054 284.088 157.896 284.088C98.7375 284.088 50.78 287.426 50.78 291.544C50.78 295.662 98.7375 299 157.896 299Z" fill="#FF770F"/>
<path opacity="0.8" d="M157.896 299C217.054 299 265.012 295.662 265.012 291.544C265.012 287.426 217.054 284.088 157.896 284.088C98.7375 284.088 50.78 287.426 50.78 291.544C50.78 295.662 98.7375 299 157.896 299Z" fill="white"/>
<path d="M313 111.825H285.64V147.81H313V111.825Z" fill="#E0E0E0"/>
<path d="M311.149 111.825H283.79V147.81H311.149V111.825Z" fill="#EBEBEB"/>
<path d="M307.466 116.661H287.464V142.968H307.466V116.661Z" fill="#FAFAFA"/>
<path d="M287.464 143.146C287.314 143.402 287.147 143.642 286.963 143.861C286.642 144.283 286.194 144.859 285.693 145.481C285.192 146.102 284.726 146.668 284.374 147.067C284.199 147.294 284.008 147.5 283.803 147.683C283.948 147.422 284.114 147.182 284.299 146.967C284.62 146.546 285.073 145.969 285.574 145.342C286.075 144.715 286.541 144.155 286.893 143.756C287.066 143.528 287.258 143.324 287.464 143.146Z" fill="#E0E0E0"/>
<path d="M307.47 143.107C307.674 143.296 307.863 143.508 308.037 143.739C308.371 144.144 308.824 144.71 309.321 145.347C309.818 145.985 310.262 146.562 310.574 147.011C310.755 147.23 310.919 147.472 311.062 147.732C310.857 147.549 310.669 147.339 310.499 147.106C310.165 146.701 309.708 146.135 309.211 145.497C308.714 144.859 308.27 144.277 307.954 143.833C307.774 143.612 307.612 143.369 307.47 143.107Z" fill="#E0E0E0"/>
<path d="M307.417 116.728C307.567 116.473 307.735 116.235 307.919 116.018C308.24 115.591 308.688 115.02 309.193 114.393C309.699 113.766 310.156 113.206 310.512 112.812C310.686 112.583 310.877 112.377 311.084 112.196C310.938 112.454 310.772 112.692 310.587 112.906C310.266 113.328 309.818 113.905 309.312 114.531C308.807 115.158 308.345 115.718 307.993 116.118C307.819 116.347 307.626 116.551 307.417 116.728Z" fill="#E0E0E0"/>
<path d="M287.412 116.794C287.206 116.608 287.016 116.397 286.845 116.162C286.511 115.757 286.053 115.192 285.557 114.554C285.06 113.916 284.62 113.339 284.304 112.89C284.121 112.672 283.957 112.431 283.816 112.169C284.02 112.352 284.209 112.562 284.379 112.795C284.717 113.2 285.17 113.772 285.667 114.404C286.163 115.036 286.607 115.624 286.924 116.068C287.105 116.29 287.268 116.533 287.412 116.794Z" fill="#E0E0E0"/>
<path d="M307.417 142.968C307.417 142.968 307.417 142.924 307.417 142.841V142.474C307.417 142.147 307.417 141.676 307.417 141.055C307.417 139.812 307.417 137.999 307.417 135.697C307.417 131.088 307.417 124.521 307.382 116.661L307.448 116.745H287.504L287.579 116.65C287.579 126.307 287.579 135.342 287.579 142.957L287.513 142.879L301.962 142.918H306.015H307.087H306.024H301.984L287.478 142.963H287.412V142.879C287.412 135.264 287.412 126.24 287.412 116.573V116.478H287.491H307.435H307.501V116.562C307.501 124.443 307.474 131.032 307.466 135.652C307.466 137.943 307.466 139.751 307.466 140.994C307.466 141.604 307.466 142.07 307.466 142.397C307.466 142.547 307.466 142.669 307.466 142.752C307.456 142.826 307.44 142.899 307.417 142.968Z" fill="#E0E0E0"/>
<path d="M292.744 127.649C292.744 127.649 292.304 134.166 297.909 134.166C297.909 130.688 295.632 127.943 292.744 127.649Z" fill="#EBEBEB"/>
<path d="M302.973 127.654C302.973 127.654 297.812 127.1 297.812 134.171C300.569 134.171 302.74 131.304 302.973 127.654Z" fill="#EBEBEB"/>
<path d="M297.658 124.094C297.658 124.094 293.443 128.869 297.891 134.166C299.944 131.398 299.782 127.061 297.658 124.094Z" fill="#E0E0E0"/>
<path d="M259.199 56.871V98.7742H211.504L209.785 57.1649L259.199 56.871Z" fill="#E0E0E0"/>
<path d="M209.785 57.165V98.6855H257.48V57.165L209.785 57.165Z" fill="white"/>
<path d="M257.704 98.9683H209.557V56.8821H257.704V98.9683ZM210.009 98.4137H257.252V57.4534H210.009V98.4137Z" fill="#E0E0E0"/>
<path d="M252.315 62.323H214.95V93.5272H252.315V62.323Z" fill="white"/>
<path d="M252.315 62.3232H252.131H251.59H249.537L241.84 62.362L214.942 62.4286L215.052 62.2899C215.052 71.8242 215.052 82.3901 215.052 93.4885L214.933 93.3388H252.298L252.201 93.4608C252.223 83.9653 252.241 76.1781 252.254 70.7593C252.254 68.0471 252.254 65.9339 252.276 64.4807C252.276 63.7652 252.276 63.2106 252.276 62.8168C252.276 62.423 252.276 62.2622 252.276 62.2622C252.276 62.2622 252.276 62.4452 252.276 62.8168C252.276 63.1884 252.276 63.7375 252.276 64.4419C252.276 65.8895 252.276 67.9972 252.302 70.6983C252.302 76.1338 252.328 83.9431 252.35 93.4719V93.5884H252.258L214.893 93.6216H214.775V93.4719C214.775 82.379 214.775 71.8076 214.775 62.2732V62.1401H214.885L241.853 62.2067L249.528 62.24H251.559H252.078L252.315 62.3232Z" fill="#E0E0E0"/>
<path d="M209.785 57.0485C210.078 57.2308 210.352 57.4561 210.603 57.7196C211.091 58.1633 211.759 58.7956 212.476 59.5222C213.192 60.2487 213.825 60.931 214.269 61.4412C214.524 61.6986 214.753 61.9948 214.951 62.3231C214.037 61.5235 213.156 60.6645 212.313 59.7496C211.424 58.9202 210.58 58.0178 209.785 57.0485Z" fill="#E0E0E0"/>
<path d="M257.48 57.1649C256.696 58.1386 255.857 59.0395 254.97 59.8605C254.138 60.7592 253.257 61.5821 252.333 62.3231C253.118 61.3514 253.957 60.4507 254.843 59.6275C255.675 58.7295 256.556 57.9066 257.48 57.1649Z" fill="#E0E0E0"/>
<path d="M257.441 98.691L252.126 93.25L257.441 98.691Z" fill="white"/>
<path d="M252.126 93.25C253.081 94.0414 253.993 94.9122 254.856 95.8568C255.769 96.7243 256.633 97.6713 257.441 98.691C256.486 97.8997 255.574 97.0288 254.711 96.0842C253.797 95.2187 252.933 94.2715 252.126 93.25Z" fill="#E0E0E0"/>
<path d="M209.785 98.6854C210.561 97.7218 211.391 96.8302 212.269 96.0175C213.1 95.1262 213.982 94.3124 214.907 93.5826C214.131 94.5462 213.301 95.4378 212.423 96.2505C211.59 97.1396 210.709 97.9533 209.785 98.6854Z" fill="#E0E0E0"/>
<path d="M222.538 72.0461V82.4956H246.047V72.0461H222.538Z" fill="#E0E0E0"/>
<path d="M59.192 60.4041L44.2197 53.5764L29.3925 60.3153C27.5023 61.4246 25.8407 62.129 25.8407 64.3698V75.5181C25.8133 83.3405 27.5037 91.0196 30.7245 97.7038C33.9213 104.441 38.677 109.782 44.3516 113.006C50.4135 110.505 54.9368 103.838 57.7018 98.1364C60.9232 91.4526 62.6137 83.7732 62.5856 75.9507V65.9283C62.5988 62.7336 61.2493 61.175 59.192 60.4041Z" fill="#F5F5F5"/>
<path d="M44.3648 106.545C39.8652 103.962 36.0995 99.7038 33.573 94.3426C31.0236 89.0544 29.6861 82.9779 29.709 76.7882V68.9566C29.709 67.1873 30.5486 65.5234 32.2234 64.5195L44.2241 58.8178V53.5764L29.3925 60.3153C27.8408 61.175 25.8407 62.129 25.8407 64.3476V75.4959C25.8133 83.3183 27.5037 90.9974 30.7245 97.6816C33.9213 104.419 38.677 109.759 44.3516 112.984L44.3648 106.545Z" fill="#EBEBEB"/>
<path d="M44.3648 113.017C45.3811 112.595 46.3654 112.059 47.3056 111.415C49.617 109.75 51.7155 107.654 53.5302 105.197C55.1823 102.939 56.6342 100.459 57.8601 97.8036C61.1259 91.0709 62.7722 83.2866 62.5988 75.396V66.189C62.5988 61.6076 60.7394 61.2693 59.1832 60.4041L44.2197 53.5764V58.8344L56.3655 64.6249C58.0359 65.6177 58.8755 67.2761 58.8755 69.062V76.8825C58.899 83.074 57.5615 89.1525 55.0116 94.4425C52.8136 98.9517 49.5827 103.605 44.3648 106.556V113.017Z" fill="#E0E0E0"/>
<path d="M48.1936 76.2778V74.7747C48.1936 74.1309 48.0931 73.4933 47.8978 72.8984C47.7025 72.3036 47.4163 71.7631 47.0554 71.3078C46.6946 70.8525 46.2662 70.4913 45.7947 70.2449C45.3233 69.9985 44.8179 69.8717 44.3076 69.8717C43.7973 69.8717 43.292 69.9985 42.8206 70.2449C42.3491 70.4913 41.9207 70.8525 41.5599 71.3078C41.199 71.7631 40.9128 72.3036 40.7175 72.8984C40.5222 73.4933 40.4217 74.1309 40.4217 74.7747V76.3111C39.906 76.4139 39.4362 76.7449 39.0963 77.2449C38.7564 77.7449 38.5686 78.3812 38.5667 79.0399V87.9142C38.5667 88.6497 38.7982 89.3551 39.2104 89.8752C39.6226 90.3953 40.1817 90.6874 40.7646 90.6874H48.0177C48.6007 90.6874 49.1597 90.3953 49.5719 89.8752C49.9841 89.3551 50.2157 88.6497 50.2157 87.9142V79.0399C50.2152 78.3432 50.007 77.6722 49.6323 77.1605C49.2576 76.6487 48.744 76.3336 48.1936 76.2778ZM45.3582 85.7067H43.4592L43.7582 83.9652C43.5497 83.7947 43.3905 83.5437 43.3043 83.2496C43.2182 82.9556 43.2097 82.6343 43.2801 82.3336C43.3506 82.033 43.4962 81.7692 43.6953 81.5816C43.8943 81.394 44.1361 81.2926 44.3846 81.2926C44.633 81.2926 44.8748 81.394 45.0739 81.5816C45.2729 81.7692 45.4185 82.033 45.489 82.3336C45.5595 82.6343 45.551 82.9556 45.4648 83.2496C45.3787 83.5437 45.2195 83.7947 45.011 83.9652L45.3582 85.7067ZM47.354 76.2778H41.2569V74.7858C41.2569 73.765 41.5783 72.7859 42.1505 72.064C42.7226 71.3422 43.4985 70.9366 44.3076 70.9366C45.1167 70.9366 45.8927 71.3422 46.4648 72.064C47.037 72.7859 47.3584 73.765 47.3584 74.7858L47.354 76.2778Z" fill="#E0E0E0"/>
<path d="M32.1355 76.167C32.0062 75.6681 31.9308 75.1494 31.9113 74.6251C31.8006 73.3675 31.7624 72.1014 31.797 70.8368C31.797 70.0992 31.8542 69.3948 31.9069 68.7569C31.9334 68.1805 32.0468 67.6158 32.241 67.093C32.3857 66.7353 32.6144 66.4427 32.896 66.2555C33.0982 66.139 33.2257 66.1446 33.2257 66.1612C32.8652 66.3771 32.5748 66.7435 32.4037 67.1984C32.2441 67.7116 32.1564 68.2558 32.1443 68.8069C32.1048 69.4391 32.074 70.138 32.0608 70.8701C32.0256 72.3344 32.0608 73.6433 32.1048 74.6251C32.1488 75.1371 32.1591 75.6528 32.1355 76.167Z" fill="white"/>
<path d="M32.3553 81.0257C32.2806 81.0257 32.219 80.5653 32.2103 79.9996C32.2015 79.4339 32.2498 78.9735 32.3245 78.9735C32.3993 78.9735 32.4608 79.4283 32.4696 79.9941C32.4784 80.5598 32.4257 81.0201 32.3553 81.0257Z" fill="white"/>
<path d="M300.107 282.511C300.107 282.588 296.208 282.649 291.394 282.649C286.581 282.649 282.682 282.588 282.682 282.511C282.682 282.433 286.581 282.372 291.394 282.372C296.208 282.372 300.107 282.433 300.107 282.511Z" fill="#FAFAFA"/>
<path d="M299.843 285.201C299.843 285.279 296.186 285.34 291.676 285.34C287.165 285.34 283.508 285.279 283.508 285.201C283.508 285.123 287.165 285.057 291.676 285.057C296.186 285.057 299.843 285.123 299.843 285.201Z" fill="#FAFAFA"/>
<path d="M285.829 275.378C285.982 277.67 285.982 279.974 285.829 282.266C285.683 279.974 285.683 277.67 285.829 275.378Z" fill="#FAFAFA"/>
<path d="M292.177 275.378C292.329 277.751 292.329 280.137 292.177 282.511C292.03 280.137 292.03 277.752 292.177 275.378Z" fill="#FAFAFA"/>
<path d="M298.138 275.317C298.284 277.739 298.284 280.172 298.138 282.594C297.991 280.172 297.991 277.739 298.138 275.317Z" fill="#FAFAFA"/>
<path d="M301.65 275.378C301.65 275.456 297.074 275.522 291.434 275.522C285.794 275.522 281.214 275.456 281.214 275.378C281.214 275.3 285.79 275.239 291.434 275.239C297.078 275.239 301.65 275.3 301.65 275.378Z" fill="#FAFAFA"/>
<path d="M235.888 83.2939H47.6924C46.1345 83.2954 44.6407 84.0773 43.5394 85.4679C42.4382 86.8584 41.8196 88.7437 41.8196 90.7095V258.428C41.8196 260.393 42.4383 262.278 43.5397 263.668C44.6411 265.057 46.1349 265.838 47.6924 265.838H119.921C119.921 265.838 124.514 283.764 110.25 293.015H177.81C177.81 293.015 161.73 286.06 165.866 265.838H235.888C237.446 265.838 238.939 265.057 240.041 263.668C241.142 262.278 241.761 260.393 241.761 258.428V90.7095C241.761 88.7437 241.142 86.8584 240.041 85.4679C238.94 84.0773 237.446 83.2954 235.888 83.2939Z" fill="#455A64"/>
<path d="M143.355 248.2C145.918 252.815 141.909 257.873 138.252 254.64C138.128 254.533 138.021 254.4 137.935 254.246C135.381 249.626 139.386 244.579 143.043 247.801C143.165 247.91 143.271 248.045 143.355 248.2Z" fill="#263238"/>
<path d="M49.3236 86.3667H234.257C234.817 86.3667 235.372 86.5059 235.889 86.7762C236.406 87.0466 236.876 87.4429 237.272 87.9425C237.668 88.4421 237.982 89.0351 238.197 89.6879C238.411 90.3406 238.521 91.0402 238.521 91.7467V235.177H45.0596V91.7467C45.0596 90.3199 45.5088 88.9514 46.3085 87.9425C47.1081 86.9335 48.1927 86.3667 49.3236 86.3667Z" fill="#E0E0E0"/>
<path d="M202.242 265.86C202.242 265.938 175.463 266.004 142.432 266.004C109.402 266.004 82.6221 265.938 82.6221 265.86C82.6221 265.782 109.393 265.721 142.432 265.721C175.471 265.721 202.242 265.782 202.242 265.86Z" fill="#263238"/>
<path d="M215.759 91.1755H66.1375V230.352H215.759V91.1755Z" fill="white"/>
<path d="M215.984 230.629H65.9177V90.8981H215.984V230.629ZM66.3617 230.075H215.544V91.4527H66.3573L66.3617 230.075Z" fill="#263238"/>
<path d="M73.1884 97.4817C73.1884 97.7439 73.1268 98.0002 73.0113 98.2182C72.8959 98.4362 72.7318 98.6061 72.5398 98.7064C72.3478 98.8067 72.1366 98.833 71.9328 98.7818C71.729 98.7307 71.5418 98.6044 71.3949 98.4191C71.2479 98.2337 71.1479 97.9975 71.1073 97.7403C71.0668 97.4832 71.0876 97.2167 71.1671 96.9744C71.2467 96.7322 71.3813 96.5252 71.5541 96.3795C71.7269 96.2339 71.93 96.1561 72.1378 96.1561C72.4164 96.1561 72.6836 96.2958 72.8807 96.5444C73.0777 96.793 73.1884 97.1302 73.1884 97.4817Z" fill="#263238"/>
<path d="M75.272 98.8073C75.8523 98.8073 76.3227 98.2138 76.3227 97.4817C76.3227 96.7496 75.8523 96.1561 75.272 96.1561C74.6918 96.1561 74.2214 96.7496 74.2214 97.4817C74.2214 98.2138 74.6918 98.8073 75.272 98.8073Z" fill="#263238"/>
<path d="M78.2525 98.8073C78.8328 98.8073 79.3031 98.2138 79.3031 97.4817C79.3031 96.7496 78.8328 96.1561 78.2525 96.1561C77.6723 96.1561 77.2019 96.7496 77.2019 97.4817C77.2019 98.2138 77.6723 98.8073 78.2525 98.8073Z" fill="#263238"/>
<path d="M149.975 106.5L141.812 102.706L133.732 106.45C132.699 107.083 131.794 107.46 131.794 108.702V114.897C131.777 119.235 132.698 123.496 134.458 127.222C136.189 130.946 138.783 133.912 141.891 135.719C145.197 134.327 147.663 130.627 149.166 127.46C150.927 123.735 151.848 119.473 151.83 115.136V109.59C151.83 107.781 151.105 106.916 149.975 106.5Z" fill="#FF770F"/>
<g opacity="0.8">
<path opacity="0.8" d="M149.975 106.5L141.812 102.706L133.732 106.45C132.699 107.083 131.794 107.46 131.794 108.702V114.897C131.777 119.235 132.698 123.496 134.458 127.222C136.189 130.946 138.783 133.912 141.891 135.719C145.197 134.327 147.663 130.627 149.166 127.46C150.927 123.735 151.848 119.473 151.83 115.136V109.59C151.83 107.781 151.105 106.916 149.975 106.5Z" fill="white"/>
</g>
<path d="M147.848 122.635H146.032V110.178C146.032 108.767 145.588 107.414 144.797 106.416C144.007 105.419 142.935 104.859 141.817 104.859C140.698 104.859 139.626 105.419 138.836 106.416C138.045 107.414 137.601 108.767 137.601 110.178V122.635H135.785V110.178C135.785 108.159 136.421 106.224 137.552 104.797C138.683 103.37 140.217 102.568 141.817 102.568C143.416 102.568 144.95 103.37 146.081 104.797C147.212 106.224 147.848 108.159 147.848 110.178V122.635Z" fill="#FF770F"/>
<g opacity="0.4">
<path opacity="0.4" d="M147.848 122.635H146.032V110.178C146.032 108.767 145.588 107.414 144.797 106.416C144.007 105.419 142.935 104.859 141.817 104.859C140.698 104.859 139.626 105.419 138.836 106.416C138.045 107.414 137.601 108.767 137.601 110.178V122.635H135.785V110.178C135.785 108.159 136.421 106.224 137.552 104.797C138.683 103.37 140.217 102.568 141.817 102.568C143.416 102.568 144.95 103.37 146.081 104.797C147.212 106.224 147.848 108.159 147.848 110.178V122.635Z" fill="black"/>
</g>
<path d="M147.382 117.094H136.238C134.828 117.094 133.684 118.537 133.684 120.316V127.028C133.684 128.807 134.828 130.25 136.238 130.25H147.382C148.792 130.25 149.936 128.807 149.936 127.028V120.316C149.936 118.537 148.792 117.094 147.382 117.094Z" fill="#FF770F"/>
<g opacity="0.5">
<path opacity="0.5" d="M143.17 121.958C143.168 121.64 143.096 121.329 142.962 121.059C142.827 120.79 142.636 120.573 142.409 120.433C142.183 120.293 141.93 120.236 141.679 120.267C141.428 120.298 141.188 120.417 140.988 120.61C140.787 120.804 140.634 121.063 140.543 121.361C140.453 121.658 140.431 121.981 140.478 122.294C140.525 122.606 140.64 122.896 140.811 123.131C140.981 123.365 141.2 123.536 141.443 123.622V126.184H142.181V123.622C142.468 123.521 142.721 123.303 142.9 123.002C143.079 122.701 143.174 122.334 143.17 121.958Z" fill="black"/>
</g>
<path d="M134.555 129.002C134.515 129.002 134.484 126.811 134.484 124.105C134.484 121.398 134.515 119.202 134.555 119.202C134.594 119.202 134.621 121.42 134.621 124.105C134.621 126.789 134.59 129.002 134.555 129.002Z" fill="#FAFAFA"/>
<path d="M140.748 124.155C140.748 124.155 140.687 124.127 140.59 124.044C140.456 123.915 140.337 123.761 140.238 123.589C140.069 123.307 139.951 122.981 139.893 122.635C139.835 122.289 139.839 121.931 139.904 121.587C139.968 121.243 140.093 120.922 140.268 120.645C140.442 120.369 140.664 120.145 140.915 119.989C141.064 119.89 141.224 119.82 141.39 119.784C141.504 119.784 141.57 119.784 141.57 119.784C141.361 119.868 141.158 119.976 140.964 120.106C140.732 120.265 140.53 120.483 140.37 120.747C140.21 121.011 140.096 121.314 140.035 121.638C139.974 121.961 139.968 122.297 140.016 122.623C140.065 122.95 140.168 123.26 140.318 123.533C140.447 123.755 140.592 123.963 140.748 124.155Z" fill="#FAFAFA"/>
<path d="M128.409 126.95C128.754 126.95 129.034 126.597 129.034 126.162C129.034 125.727 128.754 125.375 128.409 125.375C128.065 125.375 127.785 125.727 127.785 126.162C127.785 126.597 128.065 126.95 128.409 126.95Z" fill="#FF770F"/>
<path d="M156.639 105.474C156.639 105.631 156.602 105.785 156.533 105.915C156.464 106.046 156.365 106.148 156.25 106.207C156.135 106.267 156.008 106.283 155.886 106.252C155.764 106.221 155.652 106.145 155.565 106.033C155.477 105.922 155.417 105.78 155.394 105.625C155.37 105.471 155.383 105.312 155.431 105.167C155.479 105.022 155.561 104.898 155.665 104.812C155.769 104.726 155.891 104.68 156.015 104.681C156.181 104.683 156.34 104.767 156.457 104.915C156.574 105.064 156.639 105.265 156.639 105.474Z" fill="#FF770F"/>
<path d="M132.124 133.534C132.123 133.588 132.105 133.639 132.075 133.677C132.045 133.715 132.004 133.737 131.961 133.739C131.919 133.737 131.878 133.715 131.849 133.677C131.819 133.638 131.803 133.587 131.803 133.534C131.803 133.507 131.807 133.481 131.815 133.457C131.823 133.433 131.834 133.411 131.849 133.392C131.864 133.374 131.881 133.359 131.9 133.349C131.92 133.339 131.94 133.334 131.961 133.334C132.003 133.334 132.044 133.355 132.074 133.392C132.105 133.429 132.122 133.48 132.124 133.534Z" fill="#FF770F"/>
<path d="M132.124 111.204C132.122 111.257 132.105 111.308 132.074 111.345C132.044 111.383 132.003 111.403 131.961 111.403C131.919 111.403 131.879 111.382 131.849 111.345C131.819 111.307 131.803 111.257 131.803 111.204C131.803 111.151 131.819 111.1 131.849 111.063C131.879 111.025 131.919 111.004 131.961 111.004C132.003 111.004 132.044 111.025 132.074 111.062C132.105 111.099 132.122 111.15 132.124 111.204Z" fill="#FF770F"/>
<path d="M156.947 121.958C156.947 122.011 156.93 122.062 156.901 122.099C156.871 122.137 156.831 122.158 156.789 122.158C156.747 122.158 156.707 122.137 156.677 122.099C156.647 122.062 156.631 122.011 156.631 121.958C156.631 121.905 156.647 121.854 156.677 121.817C156.707 121.779 156.747 121.758 156.789 121.758C156.831 121.758 156.871 121.779 156.901 121.817C156.93 121.854 156.947 121.905 156.947 121.958Z" fill="#FF770F"/>
<path d="M159.158 112.601C159.158 112.641 159.149 112.679 159.132 112.712C159.114 112.745 159.09 112.771 159.061 112.786C159.032 112.801 159 112.805 158.969 112.797C158.938 112.789 158.91 112.77 158.888 112.742C158.866 112.715 158.851 112.679 158.845 112.64C158.839 112.602 158.842 112.561 158.854 112.525C158.866 112.488 158.886 112.457 158.912 112.435C158.938 112.413 158.969 112.402 159 112.402C159.021 112.402 159.041 112.407 159.061 112.417C159.08 112.427 159.097 112.442 159.112 112.46C159.127 112.479 159.138 112.501 159.146 112.525C159.154 112.549 159.158 112.575 159.158 112.601Z" fill="#FF770F"/>
<path d="M103.788 144.216H101.634L101.194 145.475H100.372L102.315 140.028H103.102L105.05 145.475H104.214L103.788 144.216ZM103.524 143.423L102.711 141.043L101.902 143.423H103.524Z" fill="black"/>
<path d="M108.659 141.337V145.492H107.929V144.937C107.796 145.126 107.632 145.277 107.448 145.378C107.265 145.478 107.065 145.527 106.865 145.519C106.672 145.539 106.478 145.504 106.296 145.418C106.115 145.332 105.951 145.196 105.816 145.021C105.68 144.846 105.578 144.635 105.514 144.404C105.451 144.173 105.429 143.927 105.45 143.683V141.31H106.219V143.528C106.219 144.282 106.505 144.637 106.988 144.637C107.114 144.639 107.238 144.606 107.353 144.542C107.468 144.477 107.571 144.382 107.654 144.263C107.737 144.145 107.8 144.005 107.836 143.853C107.873 143.701 107.884 143.541 107.867 143.384V141.282L108.659 141.337Z" fill="black"/>
<path d="M111.652 145.264C111.436 145.459 111.175 145.559 110.909 145.547C110.758 145.572 110.603 145.553 110.458 145.491C110.314 145.43 110.181 145.328 110.072 145.193C109.963 145.058 109.88 144.893 109.828 144.711C109.777 144.53 109.759 144.336 109.775 144.144V142.147H109.234V141.371H109.775V140.422H110.549V141.371H111.428V142.147H110.549V144.122C110.549 144.527 110.707 144.743 110.988 144.743C111.146 144.752 111.302 144.691 111.428 144.571L111.652 145.264Z" fill="black"/>
<path d="M115.529 143.107V145.486H114.76V143.229C114.76 142.491 114.47 142.119 113.978 142.119C113.849 142.111 113.72 142.138 113.601 142.199C113.482 142.26 113.374 142.353 113.287 142.472C113.199 142.591 113.133 142.733 113.094 142.888C113.055 143.042 113.043 143.206 113.059 143.367V145.469H112.285V139.718H113.059V141.82C113.2 141.636 113.371 141.491 113.559 141.396C113.748 141.3 113.95 141.256 114.153 141.265C114.345 141.245 114.538 141.28 114.718 141.367C114.898 141.454 115.06 141.591 115.192 141.768C115.325 141.945 115.423 142.157 115.482 142.389C115.54 142.621 115.556 142.866 115.529 143.107Z" fill="black"/>
<path d="M119.622 143.728H117.042C117.091 144.029 117.227 144.297 117.423 144.48C117.62 144.663 117.862 144.749 118.105 144.721C118.268 144.725 118.43 144.688 118.582 144.61C118.733 144.533 118.87 144.418 118.984 144.271L119.398 144.87C119.148 145.183 118.833 145.399 118.49 145.494C118.146 145.589 117.788 145.559 117.458 145.406C117.128 145.254 116.839 144.986 116.625 144.633C116.411 144.281 116.281 143.859 116.25 143.417C116.243 143.134 116.283 142.852 116.366 142.589C116.45 142.326 116.575 142.087 116.734 141.888C116.894 141.689 117.085 141.533 117.294 141.431C117.503 141.328 117.727 141.281 117.951 141.293C118.176 141.282 118.399 141.33 118.608 141.434C118.816 141.539 119.005 141.697 119.162 141.899C119.319 142.102 119.441 142.343 119.519 142.608C119.598 142.874 119.631 143.157 119.617 143.439C119.623 143.535 119.624 143.632 119.622 143.728ZM117.033 143.107H118.901C118.881 142.818 118.772 142.551 118.598 142.363C118.424 142.174 118.198 142.079 117.969 142.097C117.741 142.087 117.518 142.185 117.345 142.372C117.172 142.559 117.06 142.821 117.033 143.107Z" fill="black"/>
<path d="M123.618 143.107V145.486H122.848V143.229C122.848 142.491 122.558 142.119 122.066 142.119C121.937 142.111 121.809 142.138 121.689 142.199C121.57 142.26 121.463 142.353 121.375 142.472C121.288 142.591 121.222 142.733 121.182 142.888C121.143 143.042 121.131 143.206 121.147 143.367V145.469H120.374V141.315H121.108V141.87C121.251 141.673 121.427 141.519 121.623 141.418C121.819 141.317 122.03 141.273 122.242 141.287C122.432 141.268 122.623 141.303 122.802 141.389C122.98 141.474 123.141 141.609 123.273 141.784C123.405 141.958 123.504 142.167 123.564 142.396C123.623 142.625 123.642 142.868 123.618 143.107Z" fill="black"/>
<path d="M126.576 145.264C126.361 145.459 126.102 145.558 125.838 145.547C125.686 145.572 125.532 145.553 125.387 145.491C125.242 145.43 125.11 145.328 125.001 145.193C124.892 145.058 124.808 144.893 124.757 144.711C124.705 144.53 124.687 144.336 124.704 144.144V142.147H124.163V141.371H124.704V140.422H125.473V141.371H126.352V142.147H125.473V144.122C125.473 144.527 125.635 144.743 125.912 144.743C126.071 144.755 126.227 144.693 126.352 144.571L126.576 145.264Z" fill="black"/>
<path d="M127.108 140.073C127.109 139.993 127.123 139.915 127.148 139.842C127.174 139.769 127.21 139.703 127.256 139.648C127.302 139.594 127.356 139.551 127.415 139.523C127.474 139.495 127.537 139.482 127.6 139.485C127.662 139.475 127.725 139.483 127.785 139.506C127.844 139.53 127.899 139.569 127.946 139.622C127.992 139.674 128.03 139.739 128.055 139.811C128.08 139.883 128.093 139.961 128.093 140.039C128.095 140.204 128.046 140.364 127.956 140.483C127.866 140.602 127.742 140.671 127.611 140.675C127.481 140.678 127.354 140.616 127.26 140.502C127.165 140.389 127.111 140.232 127.108 140.067V140.073ZM127.213 141.337H127.983V145.492H127.213V141.337Z" fill="black"/>
<path d="M128.721 143.417C128.718 143.126 128.763 142.838 128.853 142.57C128.943 142.302 129.076 142.06 129.244 141.861C129.412 141.661 129.61 141.507 129.828 141.41C130.045 141.312 130.276 141.272 130.506 141.293C130.789 141.267 131.071 141.344 131.32 141.515C131.569 141.686 131.773 141.944 131.908 142.258L131.319 142.691C131.233 142.516 131.111 142.373 130.967 142.275C130.823 142.178 130.661 142.13 130.497 142.136C130.235 142.158 129.99 142.304 129.811 142.546C129.631 142.787 129.532 143.106 129.532 143.437C129.532 143.768 129.631 144.086 129.811 144.328C129.99 144.569 130.235 144.716 130.497 144.737C130.661 144.745 130.823 144.697 130.967 144.6C131.112 144.502 131.233 144.359 131.319 144.183L131.908 144.615C131.773 144.93 131.569 145.189 131.32 145.362C131.072 145.535 130.789 145.615 130.506 145.592C130.273 145.611 130.039 145.569 129.82 145.467C129.6 145.366 129.4 145.208 129.232 145.003C129.064 144.798 128.932 144.552 128.844 144.278C128.756 144.005 128.714 143.712 128.721 143.417Z" fill="black"/>
<path d="M135.333 143.057V145.492H134.603V144.987C134.481 145.181 134.323 145.334 134.143 145.431C133.962 145.528 133.765 145.566 133.57 145.542C132.818 145.542 132.344 145.02 132.344 144.294C132.344 143.567 132.713 143.057 133.711 143.057H134.563V142.996C134.563 142.441 134.291 142.097 133.741 142.097C133.382 142.092 133.031 142.236 132.744 142.508L132.44 141.798C132.85 141.446 133.338 141.267 133.834 141.287C134.783 141.293 135.333 141.859 135.333 143.057ZM134.563 144.216V143.733H133.781C133.258 143.733 133.113 143.983 133.113 144.288C133.113 144.593 133.35 144.843 133.741 144.843C133.913 144.856 134.083 144.803 134.23 144.691C134.377 144.579 134.493 144.413 134.563 144.216Z" fill="black"/>
<path d="M138.3 145.264C138.083 145.458 137.822 145.557 137.557 145.547C137.405 145.572 137.251 145.553 137.106 145.491C136.961 145.43 136.829 145.328 136.72 145.193C136.611 145.058 136.527 144.893 136.476 144.711C136.424 144.53 136.406 144.336 136.423 144.144V142.147H135.882V141.371H136.418V140.422H137.192V141.371H138.071V142.147H137.192V144.122C137.192 144.527 137.35 144.743 137.632 144.743C137.79 144.755 137.946 144.693 138.071 144.571L138.3 145.264Z" fill="black"/>
<path d="M141.905 143.728H139.32C139.371 144.03 139.507 144.298 139.704 144.481C139.901 144.664 140.144 144.749 140.388 144.721C140.551 144.726 140.713 144.689 140.865 144.612C141.016 144.534 141.153 144.419 141.267 144.271L141.68 144.87C141.431 145.184 141.117 145.401 140.773 145.496C140.43 145.591 140.072 145.56 139.742 145.408C139.412 145.255 139.123 144.987 138.91 144.634C138.696 144.281 138.567 143.859 138.537 143.417C138.531 143.134 138.57 142.852 138.653 142.589C138.737 142.326 138.862 142.087 139.022 141.888C139.181 141.689 139.372 141.533 139.581 141.431C139.79 141.328 140.014 141.281 140.239 141.293C140.463 141.282 140.686 141.33 140.895 141.434C141.104 141.539 141.292 141.697 141.449 141.899C141.606 142.102 141.728 142.343 141.806 142.608C141.885 142.874 141.918 143.157 141.905 143.439C141.918 143.517 141.909 143.661 141.905 143.728ZM139.315 143.107H141.184C141.163 142.818 141.055 142.551 140.881 142.363C140.706 142.174 140.481 142.079 140.252 142.097C140.024 142.087 139.801 142.185 139.628 142.372C139.454 142.559 139.343 142.821 139.315 143.107Z" fill="black"/>
<path d="M146.296 143.573V145.492H145.491V143.584L143.799 140.045H144.656L145.918 142.702L147.193 140.045H147.984L146.296 143.573Z" fill="black"/>
<path d="M147.795 143.417C147.781 142.975 147.872 142.538 148.056 142.161C148.241 141.785 148.51 141.487 148.83 141.305C149.15 141.124 149.506 141.067 149.851 141.142C150.197 141.218 150.517 141.422 150.77 141.728C151.022 142.035 151.197 142.429 151.271 142.862C151.345 143.295 151.314 143.745 151.183 144.156C151.053 144.566 150.827 144.918 150.537 145.166C150.247 145.414 149.904 145.547 149.553 145.547C149.324 145.566 149.095 145.524 148.88 145.425C148.665 145.325 148.468 145.171 148.303 144.97C148.137 144.77 148.007 144.529 147.919 144.261C147.832 143.994 147.79 143.706 147.795 143.417ZM150.525 143.417C150.515 143.176 150.45 142.943 150.337 142.748C150.223 142.552 150.067 142.403 149.887 142.319C149.708 142.235 149.512 142.219 149.325 142.273C149.138 142.328 148.968 142.45 148.836 142.625C148.704 142.8 148.615 143.02 148.581 143.259C148.547 143.497 148.569 143.742 148.644 143.965C148.72 144.187 148.845 144.377 149.005 144.51C149.165 144.644 149.353 144.715 149.544 144.715C149.678 144.719 149.811 144.687 149.934 144.622C150.058 144.557 150.169 144.461 150.261 144.339C150.353 144.217 150.424 144.072 150.47 143.913C150.515 143.754 150.534 143.586 150.525 143.417Z" fill="black"/>
<path d="M155.228 141.337V145.492H154.494V144.937C154.363 145.127 154.2 145.278 154.016 145.379C153.833 145.479 153.634 145.527 153.435 145.519C153.241 145.54 153.046 145.506 152.865 145.42C152.683 145.334 152.518 145.199 152.382 145.023C152.247 144.848 152.143 144.637 152.08 144.405C152.016 144.174 151.994 143.927 152.015 143.684V141.31H152.789V143.528C152.789 144.283 153.07 144.638 153.558 144.638C153.68 144.639 153.801 144.608 153.913 144.547C154.025 144.486 154.126 144.397 154.209 144.284C154.292 144.171 154.355 144.038 154.395 143.893C154.435 143.747 154.451 143.593 154.441 143.44V141.337H155.228Z" fill="black"/>
<path d="M158.143 141.293V142.219C158.085 142.203 158.026 142.193 157.967 142.191C157.832 142.174 157.696 142.195 157.569 142.255C157.442 142.315 157.328 142.411 157.235 142.535C157.142 142.66 157.073 142.81 157.034 142.973C156.995 143.137 156.986 143.31 157.009 143.478V145.492H156.239V141.337H156.973V141.947C157.106 141.719 157.284 141.539 157.489 141.424C157.694 141.309 157.919 141.264 158.143 141.293Z" fill="black"/>
<path d="M163.405 144.216H161.246L160.807 145.475H159.98L161.923 140.028H162.71L164.662 145.475H163.822L163.405 144.216ZM163.136 143.423L162.323 141.043L161.519 143.423H163.136Z" fill="black"/>
<path d="M164.846 143.417C164.843 143.127 164.887 142.838 164.977 142.57C165.066 142.302 165.199 142.061 165.366 141.861C165.534 141.661 165.732 141.508 165.949 141.41C166.166 141.312 166.397 141.272 166.627 141.293C166.91 141.267 167.193 141.344 167.442 141.515C167.692 141.686 167.897 141.944 168.033 142.258L167.44 142.691C167.354 142.516 167.233 142.373 167.09 142.276C166.946 142.179 166.785 142.13 166.622 142.136C166.361 142.158 166.115 142.304 165.936 142.546C165.756 142.787 165.657 143.106 165.657 143.437C165.657 143.768 165.756 144.086 165.936 144.328C166.115 144.569 166.361 144.716 166.622 144.737C166.785 144.744 166.947 144.697 167.09 144.599C167.234 144.502 167.355 144.358 167.44 144.183L168.033 144.615C167.897 144.93 167.692 145.189 167.443 145.362C167.194 145.535 166.911 145.615 166.627 145.592C166.394 145.611 166.16 145.569 165.941 145.467C165.722 145.366 165.522 145.208 165.354 145.003C165.186 144.798 165.055 144.551 164.967 144.278C164.88 144.005 164.839 143.712 164.846 143.417Z" fill="black"/>
<path d="M168.381 143.417C168.377 143.127 168.421 142.838 168.511 142.57C168.6 142.302 168.733 142.061 168.9 141.861C169.068 141.661 169.266 141.508 169.483 141.41C169.7 141.312 169.931 141.272 170.161 141.293C170.444 141.267 170.727 141.344 170.976 141.515C171.226 141.686 171.431 141.944 171.568 142.258L170.974 142.691C170.888 142.517 170.767 142.374 170.624 142.277C170.48 142.179 170.319 142.131 170.157 142.136C169.895 142.158 169.649 142.304 169.47 142.546C169.291 142.787 169.191 143.106 169.191 143.437C169.191 143.768 169.291 144.086 169.47 144.328C169.649 144.569 169.895 144.716 170.157 144.737C170.319 144.744 170.481 144.696 170.624 144.598C170.768 144.501 170.888 144.358 170.974 144.183L171.568 144.615C171.431 144.93 171.226 145.189 170.977 145.362C170.728 145.535 170.445 145.615 170.161 145.592C169.928 145.611 169.694 145.569 169.475 145.467C169.256 145.366 169.056 145.208 168.888 145.003C168.721 144.798 168.589 144.551 168.501 144.278C168.414 144.005 168.373 143.712 168.381 143.417Z" fill="black"/>
<path d="M171.911 143.417C171.897 142.975 171.988 142.538 172.172 142.161C172.357 141.785 172.626 141.487 172.946 141.305C173.266 141.124 173.621 141.067 173.967 141.142C174.312 141.218 174.632 141.422 174.885 141.728C175.138 142.035 175.313 142.429 175.387 142.862C175.46 143.295 175.43 143.745 175.299 144.156C175.168 144.566 174.943 144.918 174.653 145.166C174.362 145.414 174.02 145.547 173.669 145.547C173.44 145.565 173.211 145.523 172.996 145.423C172.781 145.323 172.585 145.169 172.42 144.968C172.255 144.768 172.124 144.527 172.036 144.26C171.949 143.993 171.906 143.706 171.911 143.417ZM174.645 143.417C174.635 143.176 174.57 142.943 174.457 142.748C174.343 142.552 174.187 142.403 174.007 142.319C173.828 142.235 173.632 142.219 173.445 142.273C173.259 142.328 173.088 142.45 172.956 142.625C172.824 142.8 172.735 143.02 172.701 143.259C172.667 143.497 172.689 143.742 172.764 143.965C172.84 144.187 172.965 144.377 173.125 144.51C173.285 144.644 173.473 144.715 173.665 144.715C173.8 144.722 173.934 144.692 174.06 144.629C174.185 144.566 174.299 144.47 174.393 144.347C174.487 144.225 174.56 144.079 174.606 143.918C174.653 143.758 174.672 143.587 174.662 143.417H174.645Z" fill="black"/>
<path d="M179.348 141.337V145.492H178.619V144.937C178.487 145.126 178.324 145.277 178.14 145.377C177.957 145.478 177.759 145.527 177.559 145.519C177.366 145.54 177.171 145.506 176.989 145.42C176.807 145.334 176.642 145.199 176.507 145.023C176.371 144.848 176.268 144.637 176.204 144.405C176.141 144.174 176.119 143.927 176.139 143.683V141.31H176.909V143.528C176.909 144.282 177.194 144.637 177.682 144.637C178.17 144.637 178.561 144.216 178.561 143.384V141.282L179.348 141.337Z" fill="black"/>
<path d="M183.604 143.107V145.486H182.83V143.229C182.83 142.491 182.54 142.12 182.047 142.12C181.919 142.111 181.79 142.138 181.671 142.199C181.552 142.26 181.444 142.353 181.357 142.472C181.269 142.591 181.203 142.733 181.164 142.888C181.124 143.043 181.112 143.206 181.129 143.367V145.47H180.377V141.315H181.111V141.87C181.254 141.672 181.43 141.517 181.626 141.417C181.822 141.316 182.034 141.272 182.245 141.288C182.434 141.273 182.623 141.311 182.799 141.398C182.975 141.486 183.133 141.622 183.263 141.795C183.392 141.969 183.49 142.176 183.549 142.403C183.608 142.63 183.626 142.87 183.604 143.107Z" fill="black"/>
<path d="M186.562 145.264C186.347 145.459 186.088 145.558 185.824 145.547C185.672 145.572 185.517 145.552 185.372 145.491C185.227 145.43 185.095 145.328 184.985 145.193C184.876 145.058 184.792 144.893 184.74 144.712C184.688 144.53 184.669 144.336 184.685 144.144V142.147H184.144V141.371H184.685V140.422H185.459V141.371H186.338V142.147H185.459V144.122C185.459 144.527 185.617 144.743 185.898 144.743C186.056 144.752 186.212 144.691 186.338 144.571L186.562 145.264Z" fill="black"/>
<path d="M198.673 153.218C198.673 153.296 172.825 153.362 140.946 153.362C109.067 153.362 83.2285 153.296 83.2285 153.218C83.2285 153.14 109.059 153.09 140.946 153.09C172.834 153.09 198.673 153.135 198.673 153.218Z" fill="#263238"/>
<path d="M173.577 160.711C173.521 160.719 173.465 160.719 173.41 160.711H172.917L171.014 160.739L164.02 160.783L140.946 160.855L117.868 160.811L110.874 160.766L108.971 160.739H108.478C108.423 160.747 108.367 160.747 108.311 160.739C108.367 160.732 108.423 160.732 108.478 160.739H108.971L110.874 160.711L117.868 160.661L140.946 160.622L164.02 160.661L171.014 160.711L172.917 160.739H173.41C173.464 160.722 173.52 160.713 173.577 160.711Z" fill="#263238"/>
<path d="M112.215 167.283H105.951C104.412 167.283 103.164 168.858 103.164 170.8V183.867C103.164 185.809 104.412 187.384 105.951 187.384H112.215C113.754 187.384 115.002 185.809 115.002 183.867V170.8C115.002 168.858 113.754 167.283 112.215 167.283Z" fill="#E0E0E0"/>
<path d="M128.145 167.283H121.881C120.342 167.283 119.094 168.858 119.094 170.8V183.867C119.094 185.809 120.342 187.384 121.881 187.384H128.145C129.685 187.384 130.932 185.809 130.932 183.867V170.8C130.932 168.858 129.685 167.283 128.145 167.283Z" fill="#E0E0E0"/>
<path d="M144.076 167.283H137.812C136.273 167.283 135.025 168.858 135.025 170.8V183.867C135.025 185.809 136.273 187.384 137.812 187.384H144.076C145.615 187.384 146.863 185.809 146.863 183.867V170.8C146.863 168.858 145.615 167.283 144.076 167.283Z" fill="#E0E0E0"/>
<path d="M160.007 167.283H153.743C152.203 167.283 150.956 168.858 150.956 170.8V183.867C150.956 185.809 152.203 187.384 153.743 187.384H160.007C161.546 187.384 162.794 185.809 162.794 183.867V170.8C162.794 168.858 161.546 167.283 160.007 167.283Z" fill="#E0E0E0"/>
<path d="M175.937 167.283H169.673C168.134 167.283 166.886 168.858 166.886 170.8V183.867C166.886 185.809 168.134 187.384 169.673 187.384H175.937C177.477 187.384 178.724 185.809 178.724 183.867V170.8C178.724 168.858 177.477 167.283 175.937 167.283Z" fill="#E0E0E0"/>
<path d="M111.824 180.268V180.822H107.098V180.373L110.004 176.729C110.821 175.697 110.98 175.093 110.98 174.433C110.98 173.324 110.377 172.664 109.221 172.664C108.853 172.632 108.485 172.706 108.143 172.88C107.801 173.053 107.495 173.323 107.247 173.667L106.891 173.268C107.195 172.865 107.563 172.551 107.973 172.346C108.382 172.141 108.821 172.051 109.261 172.081C110.606 172.081 111.459 172.957 111.459 174.372C111.459 175.204 111.243 175.936 110.338 177.062L107.845 180.268H111.824Z" fill="black"/>
<path d="M122.123 176.507C122.123 173.795 123.235 172.109 124.818 172.109C126.4 172.109 127.508 173.773 127.508 176.507C127.508 179.242 126.4 180.911 124.818 180.911C123.235 180.911 122.123 179.225 122.123 176.507ZM127.007 176.507C127.007 174.089 126.128 172.691 124.809 172.691C123.49 172.691 122.611 174.089 122.611 176.507C122.611 178.925 123.49 180.329 124.809 180.329C126.128 180.329 127.007 178.925 127.007 176.507Z" fill="black"/>
<path d="M143.694 172.17V172.614L140.735 180.85H140.186L143.113 172.741H139.254V174.405H138.761V172.187L143.694 172.17Z" fill="black"/>
<path d="M159.598 178.443H158.152V180.85H157.659V178.443H153.738V177.983L157.475 172.17H158.033L154.371 177.883H157.673V175.764H158.152V177.883H159.598V178.443Z" fill="black"/>
<path d="M176.834 183.252C175.555 183.394 174.271 183.443 172.988 183.396C171.704 183.443 170.42 183.394 169.141 183.252C170.42 183.102 171.704 183.052 172.988 183.102C174.271 183.052 175.556 183.102 176.834 183.252Z" fill="#FF770F"/>
<path d="M156.301 198.16H124.994C121.073 198.16 117.894 202.171 117.894 207.118V207.656C117.894 212.603 121.073 216.613 124.994 216.613H156.301C160.222 216.613 163.4 212.603 163.4 207.656V207.118C163.4 202.171 160.222 198.16 156.301 198.16Z" fill="#FF770F"/>
<path d="M132.119 209.198L132.33 208.61C132.639 208.9 133.013 209.057 133.398 209.059C133.899 209.059 134.115 208.832 134.115 208.504C134.115 207.623 132.189 208.199 132.189 206.685C132.189 206.025 132.607 205.465 133.508 205.465C133.887 205.457 134.261 205.584 134.585 205.831L134.392 206.419C134.126 206.216 133.823 206.105 133.513 206.097C133.012 206.097 132.809 206.341 132.809 206.652C132.809 207.517 134.726 206.951 134.726 208.454C134.726 209.103 134.286 209.664 133.407 209.664C132.949 209.692 132.496 209.528 132.119 209.198Z" fill="white"/>
<path d="M137.632 206.514V209.631H137.082V209.231C136.984 209.375 136.862 209.489 136.724 209.565C136.586 209.641 136.437 209.676 136.287 209.67C136.141 209.688 135.994 209.664 135.857 209.601C135.719 209.537 135.595 209.436 135.493 209.304C135.391 209.172 135.314 209.013 135.267 208.838C135.22 208.663 135.205 208.477 135.223 208.294V206.514H135.803V208.178C135.803 208.732 136.014 209.009 136.379 209.009C136.475 209.016 136.571 208.995 136.66 208.949C136.749 208.903 136.828 208.832 136.893 208.743C136.958 208.653 137.006 208.546 137.034 208.43C137.062 208.314 137.07 208.192 137.056 208.072V206.497L137.632 206.514Z" fill="white"/>
<path d="M141.008 208.072C141.017 208.283 140.991 208.495 140.932 208.693C140.872 208.891 140.781 209.071 140.662 209.222C140.544 209.372 140.403 209.49 140.246 209.567C140.09 209.644 139.922 209.679 139.755 209.669C139.601 209.678 139.447 209.643 139.305 209.566C139.164 209.49 139.038 209.373 138.937 209.226V209.63H138.388V205.304H138.968V206.89C139.067 206.753 139.189 206.645 139.325 206.573C139.461 206.501 139.608 206.468 139.755 206.474C139.922 206.465 140.09 206.5 140.246 206.577C140.403 206.654 140.544 206.771 140.662 206.922C140.781 207.073 140.872 207.253 140.932 207.451C140.991 207.649 141.017 207.86 141.008 208.072ZM140.423 208.072C140.415 207.891 140.366 207.717 140.28 207.571C140.195 207.425 140.077 207.314 139.942 207.252C139.808 207.19 139.661 207.179 139.521 207.22C139.382 207.262 139.254 207.354 139.156 207.486C139.057 207.618 138.992 207.784 138.967 207.962C138.942 208.141 138.959 208.324 139.017 208.491C139.074 208.657 139.168 208.798 139.289 208.897C139.409 208.996 139.55 209.049 139.693 209.048C139.793 209.051 139.893 209.027 139.985 208.978C140.078 208.929 140.161 208.856 140.23 208.764C140.299 208.672 140.351 208.563 140.385 208.444C140.418 208.325 140.431 208.198 140.423 208.072Z" fill="white"/>
<path d="M145.685 207.844V209.63H145.105V207.939C145.105 207.384 144.902 207.118 144.551 207.118C144.199 207.118 143.891 207.445 143.891 208.05V209.63H143.315V207.939C143.315 207.384 143.109 207.118 142.762 207.118C142.414 207.118 142.133 207.445 142.133 208.05V209.63H141.557V206.513H142.107V206.89C142.207 206.747 142.332 206.633 142.472 206.558C142.612 206.483 142.764 206.449 142.915 206.458C143.078 206.445 143.24 206.487 143.386 206.578C143.532 206.67 143.656 206.808 143.746 206.979C143.859 206.809 144.002 206.674 144.162 206.584C144.323 206.493 144.498 206.45 144.674 206.458C144.817 206.444 144.961 206.471 145.095 206.537C145.229 206.604 145.349 206.708 145.446 206.841C145.544 206.975 145.616 207.134 145.657 207.308C145.698 207.482 145.708 207.665 145.685 207.844Z" fill="white"/>
<path d="M146.344 205.565C146.345 205.505 146.355 205.446 146.374 205.392C146.393 205.337 146.42 205.288 146.455 205.247C146.489 205.206 146.53 205.174 146.575 205.153C146.619 205.133 146.666 205.124 146.714 205.127C146.76 205.123 146.806 205.131 146.85 205.15C146.894 205.17 146.934 205.2 146.969 205.239C147.003 205.278 147.031 205.326 147.051 205.379C147.07 205.432 147.081 205.49 147.083 205.548C147.083 205.609 147.074 205.67 147.056 205.726C147.037 205.782 147.01 205.833 146.975 205.876C146.941 205.918 146.9 205.951 146.855 205.973C146.81 205.995 146.762 206.005 146.714 206.003C146.666 206.006 146.619 205.997 146.575 205.976C146.53 205.956 146.489 205.924 146.455 205.883C146.42 205.842 146.393 205.793 146.374 205.738C146.355 205.684 146.345 205.625 146.344 205.565ZM146.419 206.513H146.999V209.63H146.419V206.513Z" fill="white"/>
<path d="M149.241 209.459C149.08 209.607 148.883 209.681 148.683 209.669C148.57 209.688 148.454 209.674 148.346 209.628C148.238 209.582 148.139 209.506 148.057 209.405C147.976 209.304 147.913 209.181 147.875 209.045C147.836 208.909 147.822 208.764 147.835 208.621V207.124H147.408V206.541H147.848V205.826H148.424V206.541H149.087V207.124H148.424V208.604C148.416 208.665 148.42 208.727 148.434 208.785C148.448 208.844 148.473 208.897 148.506 208.942C148.539 208.987 148.579 209.022 148.624 209.044C148.67 209.066 148.718 209.075 148.767 209.07C148.883 209.072 148.997 209.028 149.092 208.943L149.241 209.459Z" fill="white"/>
<path d="M268.246 120.366L270.817 113.311C268.689 109.68 267.714 105.175 268.084 100.682C268.455 96.1899 270.143 92.0346 272.818 89.0333C275.494 86.032 278.962 84.4017 282.541 84.463C286.121 84.5242 289.552 86.2726 292.162 89.3643C294.772 92.456 296.37 96.6676 296.644 101.171C296.918 105.675 295.846 110.144 293.64 113.702C291.435 117.259 288.254 119.647 284.724 120.396C281.194 121.145 277.569 120.2 274.563 117.748L268.246 120.366Z" fill="white"/>
<path d="M268.246 120.366L274.549 117.687L274.527 117.804L274.224 117.393L274.598 117.693C276.704 119.402 279.13 120.38 281.631 120.527C282.381 120.577 283.133 120.542 283.877 120.422C284.26 120.35 284.647 120.294 285.038 120.211L286.216 119.851C289.703 118.58 292.677 115.683 294.533 111.747C295.563 109.572 296.213 107.144 296.441 104.626C296.67 101.965 296.43 99.2737 295.737 96.7442C295.022 94.0985 293.816 91.7065 292.221 89.7668C290.612 87.7632 288.646 86.2742 286.489 85.4239C284.418 84.6356 282.234 84.4461 280.097 84.8693C278.076 85.2597 276.147 86.2065 274.448 87.6425C271.39 90.23 269.237 94.2013 268.435 98.7353C268.118 100.661 268.036 102.636 268.193 104.592C268.467 107.721 269.387 110.705 270.861 113.245V113.278V113.311C269.204 117.748 268.404 119.895 268.224 120.339C268.382 119.895 269.147 117.737 270.747 113.256V113.322C269.239 110.777 268.294 107.772 268.008 104.615C267.843 102.635 267.919 100.636 268.233 98.6854C269.033 94.0869 271.207 90.0544 274.303 87.4262C276.021 85.967 277.972 85.0014 280.018 84.5975C282.186 84.1662 284.404 84.3558 286.506 85.1521C288.702 86.0021 290.705 87.5025 292.348 89.5283C293.967 91.4994 295.189 93.9295 295.913 96.6166C296.613 99.1861 296.855 101.919 296.621 104.62C296.385 107.171 295.722 109.629 294.674 111.83C292.787 115.817 289.765 118.745 286.225 120.017L285.034 120.377C284.638 120.461 284.242 120.516 283.856 120.588C283.101 120.702 282.341 120.733 281.583 120.683C279.053 120.521 276.603 119.514 274.484 117.765L274.558 117.654L274.615 117.737L274.532 117.771L268.246 120.366Z" fill="#263238"/>
<path d="M286.884 103.172C287.405 102.557 287.778 101.768 287.96 100.897C288.142 100.026 288.125 99.1084 287.913 98.2486C287.7 97.3889 287.3 96.6222 286.758 96.0363C286.216 95.4505 285.554 95.0692 284.848 94.9363C284.142 94.8033 283.421 94.9241 282.766 95.2847C282.112 95.6453 281.552 96.2311 281.15 96.975C280.748 97.719 280.52 98.5909 280.492 99.4908C280.464 100.391 280.638 101.282 280.994 102.063L280.225 102.973L280.405 104.587L279.209 104.165L278.242 105.302L278.427 106.922L277.231 106.495L276.4 107.471L276.51 108.458L275.767 108.164L275.284 108.719L275.213 110.216L276.972 110.771L282.717 104.01C283.4 104.406 284.16 104.538 284.901 104.389C285.643 104.24 286.333 103.816 286.884 103.172ZM286.317 97.271C286.465 97.4697 286.562 97.7191 286.597 97.9877C286.632 98.2564 286.603 98.532 286.514 98.7799C286.425 99.0278 286.28 99.2367 286.096 99.3802C285.913 99.5236 285.7 99.5953 285.484 99.5859C285.269 99.5766 285.06 99.4868 284.885 99.3278C284.71 99.1688 284.576 98.9478 284.5 98.6928C284.425 98.4378 284.411 98.1603 284.461 97.8953C284.51 97.6304 284.621 97.3899 284.779 97.2044C284.99 96.9563 285.271 96.824 285.559 96.8365C285.847 96.849 286.12 97.0052 286.317 97.271Z" fill="#263238"/>
<path d="M286.317 97.271C286.317 97.271 286.247 97.1878 286.102 97.0769C285.896 96.92 285.655 96.8536 285.416 96.8883C285.199 96.9249 284.996 97.0482 284.838 97.2402C284.681 97.4323 284.575 97.6829 284.538 97.9556C284.501 98.2283 284.534 98.5088 284.633 98.7562C284.731 99.0036 284.889 99.2049 285.085 99.3307C285.28 99.4565 285.502 99.5003 285.718 99.4556C285.935 99.4109 286.134 99.2802 286.288 99.0824C286.441 98.8846 286.54 98.6302 286.571 98.3562C286.601 98.0822 286.562 97.803 286.458 97.5594C286.379 97.3653 286.309 97.2821 286.317 97.271C286.326 97.2599 286.317 97.271 286.37 97.332C286.417 97.3933 286.457 97.4623 286.489 97.5372C286.618 97.8105 286.667 98.1329 286.625 98.4469C286.596 98.6819 286.52 98.9038 286.405 99.0919C286.29 99.2801 286.139 99.4283 285.966 99.5229C285.752 99.6411 285.514 99.672 285.285 99.6113C285.057 99.5507 284.849 99.4015 284.691 99.1845C284.525 98.9624 284.422 98.678 284.396 98.3747C284.368 98.094 284.409 97.809 284.515 97.5594C284.601 97.3513 284.726 97.173 284.879 97.0405C285.032 96.9079 285.209 96.8252 285.394 96.7996C285.646 96.7705 285.899 96.855 286.106 97.0381C286.164 97.0841 286.215 97.1401 286.26 97.2045C286.317 97.2433 286.317 97.271 286.317 97.271Z" fill="#263238"/>
<path d="M286.884 103.173L286.827 103.239L286.66 103.428C286.434 103.657 286.187 103.855 285.926 104.016C285.502 104.27 285.045 104.424 284.577 104.47C283.944 104.534 283.31 104.397 282.73 104.071H282.761L277.046 110.849H277.024L275.266 110.294H275.231V110.25C275.253 109.778 275.275 109.268 275.301 108.747L275.785 108.192H275.811L276.541 108.447L276.484 108.514L276.369 107.526V107.493L277.2 106.511H277.222L278.422 106.933L278.361 107C278.304 106.489 278.242 105.935 278.176 105.386V105.352L278.431 105.053L279.143 104.215H279.17L280.365 104.637L280.308 104.703C280.247 104.149 280.185 103.594 280.124 103.084L280.897 102.174V102.246C280.6 101.579 280.431 100.832 280.405 100.067C280.39 99.695 280.411 99.3225 280.466 98.9572C280.517 98.5996 280.603 98.2513 280.721 97.9201C281.014 97.077 281.492 96.357 282.098 95.8445C282.704 95.332 283.413 95.0483 284.142 95.0267C284.872 95.0052 285.591 95.2467 286.215 95.7228C286.839 96.199 287.343 96.8901 287.667 97.7148C287.966 98.4977 288.095 99.3666 288.04 100.233C287.994 100.878 287.845 101.504 287.601 102.074L287.531 102.246L287.451 102.396C287.407 102.49 287.359 102.581 287.306 102.668C287.205 102.823 287.126 102.962 287.051 103.062C286.977 103.161 286.915 103.228 286.876 103.283L286.814 103.356L286.867 103.272L287.038 103.045C287.113 102.945 287.188 102.806 287.289 102.651C287.39 102.496 287.377 102.474 287.429 102.379L287.504 102.224L287.57 102.058C287.804 101.489 287.943 100.866 287.979 100.227C288.032 99.3749 287.901 98.5202 287.601 97.7537C287.283 96.9441 286.789 96.2659 286.176 95.7989C285.563 95.332 284.857 95.0956 284.141 95.1178C283.425 95.1399 282.729 95.4196 282.135 95.9239C281.541 96.4282 281.073 97.1362 280.787 97.9644C280.674 98.2893 280.591 98.63 280.541 98.9794C280.486 99.3448 280.465 99.7172 280.48 100.089C280.507 100.836 280.673 101.566 280.963 102.219V102.257L281.042 102.063L280.273 102.973V102.917C280.335 103.472 280.396 103.993 280.458 104.537V104.626H280.392L279.192 104.199H279.236L278.528 105.036L278.268 105.336V105.28C278.33 105.835 278.392 106.389 278.453 106.9V106.988H278.383L277.218 106.5H277.262L276.431 107.477V107.427C276.471 107.765 276.51 108.103 276.545 108.414V108.503L276.475 108.475L275.767 108.22H275.811L275.328 108.774V108.736C275.328 109.251 275.279 109.767 275.257 110.233L275.222 110.172L276.981 110.727H276.941L282.695 103.982C283.267 104.307 283.894 104.448 284.519 104.393C284.977 104.35 285.424 104.201 285.838 103.955C286.099 103.802 286.346 103.616 286.577 103.4L286.748 103.217L286.884 103.173Z" fill="#263238"/>
<path d="M286.757 102.618C287.277 102.002 287.65 101.213 287.832 100.343C288.014 99.4717 287.998 98.5538 287.785 97.6941C287.573 96.8344 287.172 96.0676 286.63 95.4818C286.088 94.8959 285.426 94.5147 284.72 94.3817C284.014 94.2488 283.293 94.3695 282.639 94.7301C281.985 95.0907 281.424 95.6765 281.022 96.4205C280.62 97.1644 280.392 98.0363 280.364 98.9362C280.337 99.8361 280.511 100.728 280.866 101.509L280.097 102.418L280.282 104.032L279.082 103.611L278.114 104.72L278.299 106.339L277.103 105.912L276.273 106.889L276.382 107.876L275.653 107.621L275.169 108.175L275.099 109.673L276.857 110.228L282.603 103.461C283.284 103.853 284.042 103.981 284.781 103.831C285.52 103.681 286.207 103.259 286.757 102.618ZM286.194 96.7275C286.341 96.9262 286.439 97.1757 286.474 97.4443C286.509 97.7129 286.48 97.9886 286.391 98.2364C286.302 98.4843 286.156 98.6932 285.973 98.8367C285.79 98.9802 285.577 99.0518 285.361 99.0425C285.145 99.0331 284.937 98.9433 284.762 98.7843C284.586 98.6253 284.453 98.4043 284.377 98.1493C284.302 97.8943 284.288 97.6168 284.337 97.3518C284.387 97.0869 284.498 96.8465 284.655 96.661C284.867 96.4129 285.147 96.2806 285.436 96.293C285.724 96.3055 285.997 96.4618 286.194 96.7275Z" fill="#FF770F"/>
<path d="M286.194 96.7274C286.194 96.7274 286.124 96.6442 285.979 96.5333C285.773 96.3756 285.532 96.3092 285.293 96.3447C285.145 96.3667 285.002 96.4283 284.874 96.5256C284.747 96.6228 284.637 96.7534 284.553 96.9086C284.468 97.0637 284.411 97.2399 284.385 97.4253C284.359 97.6106 284.364 97.8008 284.401 97.9832C284.438 98.1655 284.506 98.3358 284.599 98.4825C284.693 98.6293 284.81 98.7491 284.943 98.834C285.076 98.9189 285.222 98.9669 285.371 98.9747C285.52 98.9825 285.669 98.9501 285.807 98.8794C285.942 98.8058 286.064 98.698 286.165 98.5626C286.265 98.4271 286.343 98.2671 286.392 98.0923C286.442 97.9175 286.462 97.7317 286.452 97.5466C286.442 97.3614 286.402 97.1807 286.335 97.0158C286.256 96.8217 286.185 96.7385 286.194 96.7274C286.203 96.7163 286.194 96.7274 286.247 96.7884C286.294 96.8497 286.334 96.9187 286.366 96.9937C286.497 97.266 286.545 97.5893 286.502 97.9033C286.473 98.1383 286.397 98.3602 286.282 98.5483C286.167 98.7365 286.016 98.8847 285.843 98.9793C285.629 99.0975 285.391 99.1284 285.162 99.0678C284.934 99.0071 284.726 98.8579 284.568 98.6409C284.402 98.4188 284.299 98.1344 284.273 97.8312C284.245 97.5504 284.286 97.2654 284.392 97.0158C284.478 96.8077 284.603 96.6295 284.756 96.4969C284.909 96.3644 285.086 96.2816 285.271 96.256C285.522 96.2273 285.773 96.3118 285.979 96.4945C286.036 96.5405 286.088 96.5965 286.133 96.6609C286.181 96.6997 286.199 96.7274 286.194 96.7274Z" fill="#263238"/>
<path d="M286.757 102.618L286.7 102.684L286.533 102.873C286.306 103.103 286.06 103.3 285.798 103.461C285.374 103.715 284.917 103.869 284.449 103.916C283.817 103.979 283.182 103.842 282.603 103.516H282.633L276.919 110.294L275.16 109.739H275.125V109.695C275.125 109.224 275.169 108.713 275.196 108.192L275.679 107.637H275.706L276.435 107.892L276.378 107.959L276.264 106.972V106.938L277.095 105.957L278.295 106.378L278.238 106.445C278.176 105.935 278.114 105.38 278.053 104.831V104.798L278.308 104.498L279.02 103.661H279.046L280.242 104.082L280.185 104.149C280.123 103.594 280.062 103.039 280 102.529L280.774 101.619V101.692C280.477 101.024 280.308 100.277 280.282 99.5118C280.267 99.1403 280.287 98.7678 280.343 98.4025C280.394 98.0449 280.48 97.6966 280.598 97.3654C280.959 96.3176 281.603 95.4655 282.416 94.9608C283.228 94.456 284.156 94.3313 285.034 94.6089C285.913 94.8865 286.685 95.5483 287.213 96.4766C287.74 97.4049 287.99 98.5394 287.917 99.6782C287.873 100.324 287.723 100.951 287.478 101.52L287.407 101.692L287.328 101.841C287.284 101.935 287.235 102.026 287.183 102.113C287.082 102.268 287.003 102.407 286.928 102.507L286.752 102.729L286.757 102.618L286.809 102.535L286.981 102.307C287.056 102.207 287.13 102.069 287.231 101.913C287.333 101.758 287.319 101.736 287.372 101.642L287.447 101.486L287.513 101.32C287.747 100.752 287.886 100.129 287.922 99.4896C287.99 98.3722 287.742 97.2603 287.223 96.3512C286.704 95.4421 285.946 94.7946 285.084 94.5234C284.222 94.2522 283.312 94.3749 282.515 94.8698C281.718 95.3646 281.085 96.1996 280.73 97.2267C280.616 97.5515 280.534 97.8923 280.484 98.2417C280.429 98.6071 280.408 98.9794 280.422 99.351C280.452 100.098 280.617 100.827 280.906 101.481V101.52L280.879 101.553L280.11 102.463V102.407C280.172 102.962 280.233 103.483 280.295 104.027V104.115H280.224L279.024 103.688H279.068L278.405 104.465L278.15 104.764V104.709C278.211 105.263 278.277 105.818 278.334 106.328V106.417H278.264L277.086 105.946H277.13L276.299 106.922V106.872C276.339 107.21 276.378 107.549 276.413 107.859V107.948H276.343L275.613 107.693H275.657L275.174 108.247V108.209C275.174 108.724 275.125 109.24 275.103 109.706L275.068 109.645L276.826 110.2H276.787L282.541 103.455C283.113 103.78 283.74 103.921 284.365 103.866C284.823 103.823 285.27 103.674 285.684 103.428C285.945 103.275 286.192 103.089 286.423 102.873L286.594 102.69L286.757 102.618Z" fill="#263238"/>
<path d="M286.405 102.241C286.595 101.992 286.766 101.721 286.915 101.431C287.09 101.089 287.222 100.714 287.306 100.322C287.435 99.753 287.467 99.1565 287.4 98.5713C287.332 97.9861 287.167 97.4257 286.915 96.9271C286.596 96.3013 286.152 95.7925 285.627 95.4518C285.35 95.2712 285.054 95.1423 284.748 95.0691C284.587 95.0329 284.424 95.0107 284.26 95.0025C284.093 94.9887 283.926 94.9887 283.759 95.0025C283.066 95.104 282.416 95.4811 281.904 96.0794C281.392 96.6777 281.044 97.466 280.91 98.3304C280.88 98.5374 280.861 98.7468 280.853 98.9571C280.852 99.1627 280.859 99.3682 280.875 99.5728C280.907 99.9709 280.989 100.36 281.117 100.726C281.344 101.413 281.715 102.009 282.19 102.451C282.603 102.838 283.081 103.098 283.587 103.211C284.006 103.301 284.433 103.291 284.849 103.183C285.157 103.101 285.453 102.96 285.728 102.767C285.966 102.597 286.191 102.4 286.401 102.18C286.401 102.18 286.401 102.18 286.366 102.229L286.247 102.363C286.183 102.438 286.114 102.507 286.04 102.568C285.946 102.655 285.848 102.735 285.746 102.806C285.464 103.013 285.158 103.162 284.84 103.25C284.073 103.466 283.27 103.336 282.571 102.883C281.872 102.43 281.32 101.683 281.011 100.771C280.881 100.394 280.798 99.9932 280.765 99.5838C280.745 99.3741 280.737 99.1628 280.739 98.9516C280.746 98.7354 280.767 98.5203 280.8 98.3082C280.932 97.4138 281.286 96.5958 281.811 95.9731C282.342 95.3582 283.013 94.97 283.728 94.8638C283.899 94.8408 284.071 94.8315 284.242 94.8361C284.409 94.8461 284.575 94.8702 284.739 94.9082C285.061 94.9816 285.372 95.1162 285.662 95.3076C286.165 95.6313 286.596 96.1102 286.913 96.6997C287.23 97.2892 287.425 97.9703 287.478 98.6798C287.554 99.6385 287.364 100.601 286.941 101.403C286.88 101.529 286.809 101.648 286.73 101.758C286.678 101.845 286.621 101.927 286.559 102.002L286.445 102.141C286.423 102.229 286.41 102.246 286.405 102.241Z" fill="#263238"/>
<path d="M286.251 98.8461C286.251 98.8461 286.331 98.7407 286.44 98.5299C286.584 98.2224 286.646 97.8646 286.616 97.5094C286.597 97.268 286.532 97.0358 286.427 96.8327C286.308 96.5973 286.141 96.406 285.944 96.2781C285.773 96.1711 285.585 96.1155 285.394 96.1158C285.204 96.1161 285.016 96.1722 284.845 96.2797C284.675 96.3873 284.527 96.5433 284.412 96.7355C284.297 96.9277 284.22 97.1509 284.185 97.3874C284.143 97.6747 284.165 97.9712 284.249 98.2437C284.333 98.5161 284.475 98.7535 284.66 98.9293C284.813 99.0783 284.993 99.1774 285.183 99.2177C285.46 99.2812 285.747 99.2265 285.996 99.0624C286.087 98.9983 286.175 98.9279 286.26 98.8516C286.26 98.8516 286.26 98.8516 286.207 98.9237C286.149 98.9933 286.084 99.053 286.014 99.1012C285.76 99.2907 285.461 99.3614 285.17 99.3009C284.952 99.2586 284.747 99.1467 284.573 98.9758C284.399 98.8049 284.262 98.5808 284.177 98.3247C284.074 98.0223 284.045 97.6884 284.093 97.3652C284.146 97.0155 284.284 96.6954 284.489 96.45C284.687 96.2165 284.939 96.0662 285.208 96.0195C285.477 95.9729 285.751 96.0322 285.992 96.1894C286.199 96.3298 286.374 96.5339 286.502 96.7828C286.662 97.0903 286.732 97.4584 286.7 97.8239C286.667 98.1893 286.535 98.5292 286.326 98.7851L286.251 98.8461Z" fill="#263238"/>
<path d="M276.405 109.983C276.405 109.956 277.679 108.397 279.293 106.5C280.906 104.603 282.229 103.078 282.247 103.106C282.264 103.134 280.972 104.687 279.359 106.589C277.745 108.491 276.422 110.006 276.405 109.983Z" fill="#263238"/>
<path d="M277.117 100.494L277.17 100.344L277.24 100.477C277.296 100.585 277.375 100.672 277.468 100.726L277.587 100.793L277.482 100.882C277.396 100.953 277.327 101.053 277.284 101.17L277.231 101.32L277.161 101.181C277.104 101.074 277.025 100.99 276.932 100.937L276.813 100.871L276.923 100.782C277.008 100.711 277.075 100.611 277.117 100.494Z" fill="#FF770F"/>
<path d="M273.6 99.3841L273.631 99.3009L273.67 99.3786C273.705 99.4407 273.752 99.4904 273.807 99.5228L273.873 99.5616L273.811 99.6115C273.76 99.65 273.72 99.7083 273.697 99.7779L273.666 99.8666L273.627 99.789C273.594 99.7239 273.547 99.6733 273.49 99.6448L273.424 99.606L273.486 99.556C273.535 99.5122 273.575 99.453 273.6 99.3841Z" fill="#FF770F"/>
<path d="M284.678 106.949L284.708 106.866L284.748 106.944C284.781 107.006 284.826 107.056 284.88 107.088L284.95 107.127L284.889 107.177C284.837 107.215 284.797 107.274 284.774 107.343L284.743 107.432L284.7 107.349C284.667 107.287 284.622 107.239 284.568 107.21L284.502 107.171L284.563 107.116C284.612 107.074 284.652 107.017 284.678 106.949Z" fill="#FF770F"/>
<path d="M290.098 103.073L290.15 102.923L290.221 103.056C290.276 103.167 290.358 103.254 290.454 103.306L290.568 103.372L290.462 103.461C290.377 103.532 290.308 103.632 290.265 103.749L290.212 103.899L290.141 103.766C290.086 103.656 290.007 103.57 289.913 103.516L289.794 103.45L289.904 103.361C289.989 103.29 290.056 103.19 290.098 103.073Z" fill="#FF770F"/>
<path d="M289.394 97.6259L289.482 97.3763L289.601 97.6037C289.695 97.7874 289.829 97.9321 289.988 98.0197L290.181 98.1307L290.001 98.2804C289.857 98.4003 289.742 98.5696 289.671 98.7685L289.583 99.0181L289.465 98.7907C289.372 98.6078 289.239 98.4632 289.082 98.3747L288.885 98.2638L289.065 98.114C289.21 97.9958 289.325 97.826 289.394 97.6259Z" fill="#FF770F"/>
<path d="M276.022 95.962L276.114 95.7124L276.229 95.9398C276.324 96.122 276.458 96.2663 276.616 96.3558L276.813 96.4667L276.633 96.6165C276.489 96.7363 276.374 96.9056 276.303 97.1046L276.216 97.3541L276.097 97.1267C276.003 96.943 275.869 96.7983 275.71 96.7108L275.517 96.5998L275.697 96.4501C275.839 96.3285 275.952 96.1595 276.022 95.962Z" fill="#FF770F"/>
</svg>
